<svg width="377" height="390" viewBox="0 0 377 390" fill="none" xmlns="http://www.w3.org/2000/svg">
<path d="M370.2 127.9C365.9 125.3 360.5 125 355.7 124.9C355.4 124.9 355.1 124.9 354.8 124.9C349.8 124.9 344.7 126 339.9 128.1C335.2 130.1 330.4 133 326 136.3C324.4 128.2 320.2 120.4 317.6 115.9C314.9 111.5 312.8 107.7 311.4 102.9C309.8 97.3 307.2 92.9 304.4 88.6C301.5 84.1 298.3 78.9 296.1 73.4C294.7 69.9 293.8 66.3 292.8 62.5C292.4 60.9 291.9 59.2 291.5 57.5C289.9 51.7 288.2 47.5 286.1 43.7C284 40.1 281.5 36.9 279 33.8C277.9 32.4 276.7 30.9 275.6 29.5C275.2 28.9 274.8 28.3 274.3 27.6C272.6 25.1 270.8 22.3 267.7 20.8C266.2 20 264.6 19.7 262.9 19.7C259.6 19.7 256.6 21.1 254.7 22.2C254.2 22.5 253.7 22.8 253.2 23.2C251.4 15.8 247.8 8.8 243.4 4.5C240.7 1.9 237.5 0.5 234.2 0.5C226.6 0.5 220.1 7.69999 217.9 14.4C216.8 17.6 216.2 21.2 216.1 25.3C211.9 25.4 208.4 27 205.6 29.9C199 36.7 198.1 49.8 198.4 59.5C198.6 64.1 199.2 68.7 199.7 73.1C199.8 74 199.9 74.8 200 75.7C195.3 76.6 191.8 81.4 189.5 90C189.3 89.8 189 89.6 188.8 89.4C188.2 87.3 187.5 85.5 186.7 83.7C184.8 79.6 181.6 76.8 178.2 76C178.4 74.6 178.5 73.2 178.7 71.9C180.1 60.5 181.6 48.8 177.4 37.4C174.7 29.9 169.1 25.5 162 25.3C161.9 22.9 161.7 20.8 161.4 18.8C160.1 11 153.4 0.200012 144.4 0.200012C142.2 0.200012 140 0.800006 137.9 2.10001C132.5 5.40001 129.6 11.4 127.4 16.9C127.1 17.7 126.8 18.5 126.6 19.1C126.1 20.6 125.6 22 125.2 23.3C122.3 21.1 118.9 19.8 115.7 19.8C112.1 19.8 109 21.3 106.5 24C104.5 26.3 102.6 28.9 100.8 31.3C99.7 32.8 98.5 34.4 97.4 35.9C93.4 40.9 90.7 45.6 88.7 50.7C87.1 54.8 86 58.9 84.8 62.9C82.9 69.5 81.1 75.7 77.8 81.5C76.7 83.4 75.5 85.2 74.2 87.2C72 90.5 69.8 93.8 68.2 97.6C67.3 99.7 66.7 101.7 66.1 103.7C65.1 106.9 64.1 109.8 62.5 112.6C58.1 119.9 53.5 128.2 51.9 136.6C50.2 135.3 48.4 134 46.4 132.7C38.8 127.6 30.6 125 22.1 125C19.8 125 17.4 125.2 15 125.6C9.2 126.5 4.50001 129.9 2.20001 134.6C0.200011 138.8 0.500005 143.6 3.1 148C4.4 150.1 5.8 152.1 7.1 153.9C9.1 156.6 11 159.2 12.2 162.3C14.2 167.3 15.3 172.9 16.4 178.3L16.6 179.3C16.8 180.3 17 181.3 17.2 182.2C18.1 186.9 19 191.8 21.2 196.4C22.7 199.4 24.5 202.2 26.3 204.9C28 207.4 29.5 209.8 30.8 212.3C37.3 225.4 39.5 238.8 40.8 250.1C42 260.5 43.5 273.5 51 283.3C53.1 286 55.4 288.5 57.6 290.9C60 293.5 62.2 295.9 64.1 298.5C66.3 301.4 68.4 304.6 70.5 307.8L71.6 310.2C72.4 311.9 73.6 313.4 74.7 314.7L75 315.2C75.4 315.8 75.7 316.4 76.1 317.1C78 320.6 79.9 324.3 81.6 327.9C83 330.8 84.5 333.8 86.1 336.8C86.9 339.4 88.1 342 89.6 344.7C89.5 345.3 89.4 345.9 89.3 346.6C88.4 352.7 87.4 359 90.2 365.6C91.3 368.1 92.6 370.5 93.8 372.7C95.8 376.3 97.7 379.7 98.6 383.5C99.1 385.4 100.7 386.7 102.7 386.7C103.1 386.7 103.5 386.6 103.9 386.5C113.4 387.6 123.1 387.8 132.5 388C139.3 388.1 146.4 388.3 153.2 388.8C154.6 388.9 156 389 157.3 389.1C161.8 389.5 166.5 389.8 171.2 389.8C172.4 389.8 173.6 389.8 174.7 389.7H174.8C178.3 389.5 183.1 389.3 187 387.5C187.2 387.5 187.4 387.5 187.6 387.5C188.3 388 189.2 388.3 190.1 388.3C191.1 388.3 192 388 192.7 387.5C208.1 387.3 223.7 386.7 238.8 386.1C252.9 385.5 267.4 385 281.7 384.7C283.4 384.7 284.7 383.7 285.3 382.3C285.6 381.9 285.8 381.5 285.9 381L286.3 379.4C288.8 369.8 292.4 355.6 284.9 346.8C285.5 345.8 286.2 344.9 287 343.9C288 342.5 289 341.1 290 339.5C292 336.3 293.7 332.9 295.1 329.9C297.8 326 299.4 322.7 300.3 319.5C307 307.1 313.5 297.7 320.8 290C324.8 285.7 328.6 281.5 330.9 276C332.9 271.3 334.3 266.1 335.5 259.1C336.1 255.5 336.6 251.9 337 248.4C338.2 239.2 339.4 230.6 342.6 222.1C345.2 215.3 347.8 210 350.9 205.2L351.5 204.3C354.6 199.5 357.5 195.1 358.9 189C359.6 186.1 360.2 183.1 360.7 180.3C362.6 170.8 364.3 161.8 369.8 154.4C370.2 153.8 370.7 153.2 371.2 152.7C373.6 149.7 376.3 146.4 376.6 141.7C377.2 135.8 374.6 130.5 370.2 127.9Z" fill="black"/>
<path d="M186 104.7C185.8 104.3 185.6 103.9 185.6 103.5C185.5 103.1 186 103 186.2 103.4C186.4 103.9 186.7 104.4 187.1 104.8C186.7 104.7 186.3 104.7 186 104.7Z" fill="#FFE1D9"/>
<path d="M189 106.5C187.7 106.6 186.6 105.8 185.9 104.7C186.2 104.7 186.6 104.7 186.9 104.7C187.4 105.1 187.9 105.4 188.6 105.5C189.3 105.5 190.1 105.2 190.5 104.6C190.5 104.7 190.5 104.7 190.5 104.8C190.9 104.8 191.2 104.8 191.6 104.8C191.2 105.8 190.1 106.4 189 106.5Z" fill="#FFE1D9"/>
<path d="M230.5 60.7C232 61.3 234.4 60.2 235.8 59.8C237.6 59.3 239.1 58.5 240.5 57.3C241 56.8 240.3 56 239.7 56.3C238 57.4 236.1 57.8 234.1 58.3C232.7 58.6 230.9 58.6 230.1 59.9C229.9 60.2 230.2 60.6 230.5 60.7ZM236.6 63.3C234.7 62.5 229.3 60.6 228.6 63.8C228.5 64.2 228.8 64.4 229.2 64.4C230.4 64.2 231.2 63.5 232.5 63.7C233.7 63.8 234.9 64.3 236 64.7C236.8 65.1 237.4 63.7 236.6 63.3ZM265.7 68C266.5 67.3 267 66.3 267.2 65.2C267.3 64.5 266.4 64.2 266.1 64.9C265.7 66 264.8 66.7 263.8 67.2C263.4 67.4 262.7 67.5 262.4 68C262.2 68.3 262.3 68.8 262.7 69C263.6 69.6 265 68.6 265.7 68ZM142.2 59.8C143.7 60.2 146 61.3 147.5 60.7C147.8 60.6 148.1 60.2 147.8 59.9C146.9 58.6 145.2 58.6 143.8 58.3C141.8 57.9 139.9 57.4 138.2 56.3C137.6 55.9 136.9 56.8 137.4 57.3C138.9 58.5 140.4 59.2 142.2 59.8ZM148.9 64.4C149.2 64.5 149.5 64.2 149.4 63.8C148.6 60.5 143.3 62.5 141.4 63.3C140.6 63.6 141.2 65 142 64.7C143.1 64.2 144.3 63.8 145.6 63.7C146.9 63.6 147.7 64.2 148.9 64.4ZM112.3 68C113 68.6 114.4 69.5 115.3 69C115.6 68.8 115.8 68.4 115.6 68C115.3 67.5 114.7 67.4 114.2 67.2C113.2 66.7 112.3 66 111.9 64.9C111.6 64.2 110.7 64.5 110.8 65.2C111 66.3 111.5 67.3 112.3 68ZM207 83.6C206.8 83.9 206.9 84.6 207.4 84.5C209.1 84.3 210.6 83.2 212.1 82.5C214.2 81.5 216.4 80.7 218.7 80.2C219.5 80 219.1 78.9 218.4 79C216.2 79.3 214.2 79.9 212.2 80.7C210.4 81.4 208.2 82.1 207 83.6ZM170.6 84.5C171.1 84.6 171.2 83.9 171 83.6C169.8 82.2 167.6 81.4 165.9 80.7C163.9 79.9 161.8 79.3 159.7 79C159 78.9 158.6 80 159.4 80.2C161.7 80.7 163.8 81.5 165.9 82.5C167.5 83.2 168.9 84.3 170.6 84.5ZM173.7 64C173.1 71.6 171.5 79 171.3 86.6C171.2 92.9 171.7 99.2 171.6 105.5C172.5 105.4 173.5 105.3 174.4 105.2C174.4 99.5 173.9 93.8 173.9 88.2C173.9 85.9 174 83.6 174.2 81.3C181 80.3 182.8 88 183.9 93.8C184.6 97.4 184.9 101.1 185.1 104.8C185.4 104.8 185.7 104.8 186 104.8C186.6 105.9 187.8 106.6 189.1 106.6C190.2 106.6 191.3 105.9 191.7 104.9C192.1 104.9 192.5 104.9 193 104.9C193.2 101.3 193.5 97.7 194.2 94.2C195.2 88.4 197 80.3 204 81.3C204 81.5 204 81.7 204.1 81.9C204.7 89.7 203.8 97.6 203.9 105.4C204.8 105.4 205.7 105.5 206.6 105.5C206.5 101.3 206.8 97.1 206.9 92.9C207.3 76.7 202 60.4 204.9 44.2C206.4 36.1 210.4 29.9 219.2 30.6C219.3 30.6 219.3 30.6 219.4 30.6C219.7 37.4 220.9 44.3 221.4 50.7C221.7 54.4 222 58 223.1 61.6C224.4 65.9 226.4 69.9 227.4 74.3C229.3 83.2 228.1 92.3 231.6 101C232.4 103 233.4 104.9 234.5 106.8C235.6 106.8 236.7 106.8 237.8 106.8C237.1 105.5 236.3 104.2 235.7 102.8C233.4 98.3 232.2 93.4 231.7 88.4C230.9 81.1 230.9 74.2 228.3 67.2C227 63.8 225.6 60.7 224.9 57.1C224.2 53.3 224.1 49.5 223.8 45.6C223.4 40.7 222.6 35.8 222.3 30.8C222 25.5 221.9 19.8 223.8 14.8C225.5 10.2 230.6 4.09998 236.1 5.79998C241.3 7.49998 244.3 14.5 246.1 19.1C247.5 22.7 248.7 26.6 249.3 30.6C249.4 31.5 249.5 32.4 249.5 33.3C249.5 33.5 249.6 33.6 249.6 33.7C248.7 36.3 248.3 39.2 248.1 42C247.6 51.2 249.8 59.5 254.1 67.6C256.6 72.2 259.5 76.6 260.5 81.8C261.6 87.5 261 93.4 261.4 99.1C262.3 110.6 268.6 120.9 269.4 132.4C269.9 140.1 269.3 149.5 274.9 155.4C273.8 155.3 272.7 155.2 271.6 155.3C268.4 155.5 265 155.9 261.7 156.5C261.4 156.9 261.2 157.2 260.8 157.5L260 158.1C260 158.7 259.9 159.2 259.8 159.7C263.1 159.1 266.3 158.2 269.5 157.8C276.1 156.9 281.5 159.2 287.8 160.9C288.7 161.2 289.1 159.8 288.2 159.5C285.1 158.4 282 157 278.9 156.1C279.1 155.7 279 155.1 278.5 154.7C272 149.2 272.8 139.9 272.3 132.2C271.9 126.5 270.2 121.2 268.4 115.8C269.4 115.7 270.4 114.7 271.2 114.1C272.3 113.3 273.4 112.6 274.5 111.8C275.1 111.4 274.7 110.5 274 110.7C272.7 111 271.4 111.8 270.3 112.5C269.6 113 268.5 113.5 267.9 114.2C267.2 112.2 266.6 110.2 266 108.2C263.3 98.7 265.2 88.9 262.9 79.5C262.5 77.9 262 76.3 261.3 74.8C264 75.2 265.8 73.7 267.5 71.7C271.1 67.6 274.7 65.8 280.2 65.7C280.9 65.7 280.9 64.7 280.2 64.6C276.5 64.3 273.2 64.9 270.1 67C266.8 69.2 265.1 72.1 261.1 73.3C260.9 73.3 260.8 73.5 260.7 73.6C257.9 67.4 253.6 61.9 251.9 55.2C250.1 48.1 249.5 38.5 253 31.8C254.8 28.4 258.9 24.6 263.1 24.9C267.3 25.2 269.9 31.2 272.2 34.1C275.3 38 278.6 41.6 281.1 45.9C283.8 50.6 285.4 55.8 286.8 61C289.3 70.2 292.2 78.5 297.1 86.7C300 91.5 303.7 96 305.4 101.4C306.8 105.9 307.9 110.1 310.4 114.2C312.9 118.4 315.2 122.4 317.1 126.9C319.2 131.8 321.6 136.9 322 142.3C322 142.5 322 142.6 322 142.8C322 143 322.1 143.2 322.2 143.3C318.2 147.1 314.9 151.5 312.8 156C309.9 162.2 309.2 169.3 306.5 175.6C304 181.5 300.9 187.1 297.1 192.4C296.6 193.1 296 193.9 295.5 194.6C295.1 195.1 295.7 195.7 296.3 195.6C289.9 204.4 280.1 208.7 271 214.2C266.5 217 262.9 220.3 258.8 223.6C253.7 227.8 246.5 227.7 240.4 229.7C229.7 233.4 221.6 240.5 213.8 248.5C208.3 254.3 199.6 260.8 196.8 268.9C196 269.9 195.3 271 194.5 272C192.4 275.2 190.6 278.6 189.2 282.1C188.5 279.3 187.2 276.6 185.6 274.4C185.5 274.3 185.5 274.3 185.4 274.2C184.3 270.9 182.6 267.9 179.8 265.6C176.2 258.9 169 253.4 164.2 248.4C156.5 240.4 148.4 233.2 137.6 229.6C131.5 227.5 124.3 227.7 119.2 223.5C115.1 220.2 111.6 216.8 107 214.1C97.8 208.5 88.1 204.3 81.7 195.5C82.2 195.6 82.8 195.1 82.4 194.5C81.6 193.5 80.8 192.4 80.1 191.3C77.3 187.3 74.8 183 72.8 178.6C69.9 172.4 68.6 166.1 66.6 159.6C64.7 153.4 60.5 148 55.6 143.4C55.8 143.3 56 143.1 56 142.8C56.2 138.4 57.9 134.3 59.5 130.2C61.3 125.6 63.2 121.2 65.8 117C68 113.5 70 110.1 71.2 106.2C72.6 101.5 74 97.5 76.7 93.3C82 85.2 86.8 77 89.4 67.7C92.2 57.8 94.5 48.4 100.9 40.1C103.6 36.6 106.4 33.3 109 29.8C110.1 28.3 111.3 26.2 113.2 25.4C115.7 24.2 119.1 25.7 121.2 27.2C127.6 31.9 127.8 41.2 127.3 48.4C126.5 58.2 121.6 65.3 117.4 73.8C117.3 73.6 117.2 73.5 117 73.4C113 72.2 111.3 69.3 108 67.1C104.9 65 101.6 64.4 97.9 64.7C97.2 64.7 97.2 65.8 97.9 65.8C103.4 65.8 107 67.7 110.6 71.8C112.3 73.8 114.2 75.2 116.9 74.8C113.4 82.6 114.7 91.2 113.9 99.5C113.4 104.6 111.9 109.3 110.3 114.1C109.7 113.4 108.7 112.9 108 112.4C106.8 111.6 105.6 110.9 104.3 110.6C103.6 110.4 103.2 111.4 103.8 111.7C104.9 112.4 106 113.2 107.1 114C107.8 114.5 108.8 115.5 109.8 115.7C108.3 120.3 106.8 124.8 106.2 129.6C105.2 137.9 107 148.5 99.8 154.6C99.3 155 99.2 155.5 99.4 156C96.2 156.9 93.2 158.2 90.1 159.4C89.2 159.7 89.6 161.1 90.5 160.8C96.8 159 102.1 156.8 108.8 157.7C109.5 157.8 110.2 157.9 110.9 158C110.7 157.2 110.6 156.3 110.6 155.4C109.3 155.3 108 155.1 106.7 155.1C105.6 155 104.5 155.1 103.4 155.2C108.2 150 108.4 142.1 108.8 135.3C109.3 125 113.5 116.1 115.8 106.2C118.4 95 115.5 83.5 121.1 73C125.5 64.8 129.5 57.4 130.2 47.9C130.5 43.3 130.4 38 128.8 33.4C128.9 33.3 128.9 33.2 128.9 33C129.1 29.1 129.9 24.5 131.5 20.2C133.2 15.3 135.8 10.6 139.2 7.6C143.7 3.5 149.1 5.89999 152.4 10.4C155.7 14.9 156.3 20.8 156.3 26.2C156.3 31.6 155.6 36.9 155 42.2C154.3 48.5 154.4 55 152.4 61.1C150.2 68 147.7 74.1 147.2 81.4C146.6 89.7 145.4 96.8 141.9 104.1C143 104 144.2 103.9 145.3 103.8C148.7 96.7 149.5 89.4 150 81.4C150.3 76.7 151.1 72.1 152.8 67.6C154.3 63.4 155.9 59.5 156.5 55.1C157.3 49.1 157.6 42.9 158.2 36.8C158.4 34.6 158.6 32.4 158.8 30.2C158.9 30.2 159 30.2 159 30.2C175.9 29 174.6 52.5 173.7 64ZM291.8 112.8C292.4 112.7 292.3 111.6 291.7 111.7C285.6 112.5 277.3 113.9 272.3 117.8C271.7 118.3 272.4 119.3 273.1 119.1C276.3 118.3 279.2 116.4 282.3 115.3C285.3 114.2 288.5 113.4 291.8 112.8ZM215.3 76.9C216.2 76.6 215.8 75.2 214.9 75.5C213.8 75.8 212.5 75.8 211.5 76.4C211.2 76.6 211.2 77.1 211.5 77.2C212.7 77.8 214.2 77.3 215.3 76.9ZM166.5 77.2C166.8 77 166.8 76.5 166.5 76.4C165.5 75.9 164.2 75.9 163.1 75.5C162.2 75.2 161.8 76.6 162.7 76.9C163.8 77.3 165.3 77.8 166.5 77.2ZM105 119.1C105.7 119.3 106.4 118.3 105.7 117.8C100.7 113.9 92.4 112.5 86.3 111.7C85.7 111.6 85.5 112.7 86.2 112.8C89.5 113.4 92.7 114.2 95.8 115.3C98.9 116.4 101.8 118.3 105 119.1Z" fill="#FFE1D9"/>
<path d="M25.4 179.9C26.6 180 27.8 179.2 29.1 179.1C30.4 179 31.8 179 33.2 179C34.1 179 34.1 177.7 33.2 177.6C31.1 177.5 25.9 176.5 25 179.3C24.8 179.6 25.1 179.8 25.4 179.9ZM30.3 199.3C27.2 194.8 25.3 190.5 24.1 185.1C22.8 179.3 21.9 173.5 20.4 167.8C20 166.1 19.5 164.4 18.9 162.8C19 162.6 19.1 162.4 19.1 162.2C19.6 154.8 28.9 151.8 26.5 143.8C23.8 135.1 17.2 133.7 9.20001 134.5C11.8 131.8 16.2 131.3 20.2 131C26.1 130.6 31.8 131.6 37.1 134.2C48.9 139.8 61.7 150.6 64.9 163.7C67.5 174.1 71.7 184.7 78.6 193.1C78.8 193.4 79 193.6 79.3 193.9C79 194.1 78.7 194.5 79 194.9C83.9 203.9 91.8 209 100.5 214C105.5 216.9 110.4 219.8 114.6 223.7C118.5 227.4 121.9 229.6 127.3 230.8C133.6 232.3 139.5 233.7 145.2 236.9C150.6 240 155.4 244 159.7 248.5C163.4 252.4 167.3 256.1 171 260C174.2 263.3 176.4 266.8 178.6 270.6C178.9 271.4 179.3 272.1 179.8 273C181.5 275.8 182.4 278.5 183.1 281.7C183.7 284.6 183.9 287.6 184.4 290.5C184.9 293 185.5 295.3 186 297.8C184.5 313.1 182.7 328.6 186 343.5C186 344.2 186 344.8 186 345.5C179 347.1 172.2 349.4 165.2 350.8C156.8 352.5 148.5 353.1 140 352.9C131.7 352.8 123.6 352 115.3 350.8C110.7 350.1 106 349.7 101.6 350.9C100.4 346.9 97.8 343.4 95.4 340C91.9 335 89.4 329.6 86.6 324.1C80.9 312.9 74.7 302 66.9 292.1C63.9 288.3 60.4 285.1 57.3 281.4C53.4 276.8 51.2 271.6 49.7 265.8C46.7 254.4 47 242.5 44.2 231C41.5 219.7 36.8 208.8 30.3 199.3ZM29.9 195.9C31.2 196.6 31.4 194.7 31.6 193.9C32.1 192.1 33 190.7 34.3 189.4C35 188.7 34.1 187.4 33.2 188C31 189.6 29.5 192.3 29.4 195C29.4 195.4 29.6 195.7 29.9 195.9ZM41.5 203C41.7 202.7 41.6 202.2 41.3 202C40.9 201.8 40.6 202 40.3 202.2C40 202.6 39.7 203 39.3 203.3C39 203.6 38.4 203.9 38.2 204.4C38 204.8 38.2 205.4 38.8 205.4C39.4 205.3 39.9 204.8 40.4 204.4C40.8 204 41.1 203.5 41.5 203Z" fill="#FFE1D9"/>
<path d="M19.6 137.1C22.9 139 26 144.6 24.7 148.4C23.9 151 21.3 152.7 19.7 154.8C18.7 156.1 18 157.5 17.5 159C16.8 157.2 15.9 155.5 14.9 153.8C12 149 5.9 144.5 7.2 138.3C7.4 137.2 7.89998 136.2 8.39998 135.4C8.49998 135.4 8.6 135.5 8.7 135.5C12.2 135.9 16.4 135.3 19.6 137.1Z" fill="#FFEAE6"/>
<path d="M190.8 103.7C190.7 103 191.8 103 191.9 103.7C191.9 104.1 191.9 104.5 191.7 104.8C191.3 104.8 191 104.8 190.6 104.8C190.6 104.7 190.6 104.7 190.6 104.6C190.7 104.3 190.8 104 190.8 103.7Z" fill="#FFE1D9"/>
<path d="M281.2 355.3C281.9 355.2 281.9 353.9 281.2 353.8C280.2 353.6 279.1 353.5 278 353.4C278.2 353.2 278.4 353 278.5 352.7C278.9 351 279.6 349.4 280.4 347.8C280.4 348 280.4 348.2 280.6 348.3C287.7 355.8 283.1 370.4 280.8 379.2C280.8 379.3 280.8 379.5 280.8 379.6C250.9 379.3 221 381.4 191 381.7C189.8 375.8 188.6 370.1 188.2 364C188.1 362.6 188.1 361.2 188.1 359.7C188.3 358.7 188.3 357.4 188.4 356.1C188.7 355 188.8 353.8 188.7 352.7C189.1 350.4 189.9 348.3 191.8 347.7C192 347.8 192.2 347.9 192.5 348C193.4 348.4 194.3 348.5 195.3 348.6C196.5 348.7 197.8 349.1 199 349C199.1 349 199.2 349 199.3 348.9C199.6 349 199.9 349.1 200.2 349.2C209.9 352.1 220.3 352.8 230.3 353.5C238.5 354.1 246.6 354.7 254.8 355C263.3 355.5 272.8 356.6 281.2 355.3Z" fill="white"/>
<path d="M348.1 195.9C348.4 195.7 348.6 195.4 348.6 195.1C348.5 192.4 347 189.7 344.8 188.1C344 187.5 343 188.8 343.7 189.5C345 190.8 345.9 192.2 346.4 194C346.6 194.7 346.8 196.6 348.1 195.9ZM352.6 179.9C352.9 179.9 353.2 179.6 353.1 179.3C352.2 176.5 347 177.5 344.9 177.6C344 177.6 344 178.9 344.9 179C346.2 179.1 347.6 179 348.9 179.1C350.2 179.2 351.4 180 352.6 179.9ZM355.8 175.8C354.6 181.7 353.9 188.1 351.3 193.5C349.2 198 345.8 201.9 343.4 206.3C340.5 211.5 338.2 217.1 336.3 222.6C332.3 234 331.9 245.7 330 257.5C329.1 263.2 327.8 269 325.4 274.2C323.1 279.1 319.2 283 315.5 286.9C306.5 296.6 299.5 308.2 293.4 319.9C290.3 325.8 287.8 332.2 284 337.7C280.9 342.3 277.2 346.6 276 352.1C275.9 352.7 276.1 353.1 276.4 353.4C270.1 353 263.5 353.4 257.2 353.2C249 352.9 240.9 352.4 232.7 351.8C222.2 351.1 211 350.7 200.7 347.8C197.2 346.9 193.9 345.6 190.7 344.1C190.4 344 190.2 344 190 344.2C189.6 343.8 189.1 343.5 188.6 343.2C188.5 343.1 188.3 343.1 188.2 343.1C186.2 334.3 186.2 325.4 186.7 316.5C187.6 311.1 188.7 305.7 189.5 300.2C190.3 294.6 191.4 289.1 193.2 283.8C194.4 280.3 196 277 197.5 273.6L197.6 273.5C200.6 268.6 203.1 264.1 207.1 259.8C210.8 255.9 214.7 252.2 218.4 248.3C222.7 243.8 227.5 239.8 232.9 236.7C238.6 233.5 244.5 232.1 250.7 230.6C256 229.4 259.4 227.2 263.4 223.5C267.6 219.6 272.5 216.7 277.5 213.8C286.2 208.8 294.1 203.7 299 194.7C299.2 194.3 299 193.9 298.7 193.7C305 186.4 309.6 176.9 312.1 167.7C313.9 161.1 315.5 155.7 320 150.3C324.1 145.5 329.1 141.4 334.2 137.9C343.1 131.9 354.2 128.6 364.8 131.9C366.6 132.4 367.9 133.3 368.8 134.4C360.8 133.6 354 135 351.4 143.7C349 151.7 358.3 154.7 358.8 162.1C358.8 162.3 358.9 162.6 359 162.7C357.6 167 356.7 171.4 355.8 175.8ZM339.2 205.4C339.7 205.5 339.9 204.8 339.8 204.4C339.6 204 339.1 203.7 338.7 203.3C338.3 203 338 202.6 337.7 202.2C337.5 201.9 337.1 201.7 336.8 202C336.5 202.2 336.3 202.6 336.6 203C336.9 203.5 337.3 204 337.7 204.4C338.1 204.9 338.6 205.4 339.2 205.4Z" fill="#FFE1D9"/>
<path d="M369.6 135.4C371.7 138.8 370.7 143.6 367.9 147.2C365 151 362.4 154.6 360.5 159C360.1 157.5 359.3 156.1 358.3 154.8C356.7 152.7 354.2 151 353.3 148.4C352.1 144.6 355.1 139 358.4 137.1C361.5 135.3 365.8 135.9 369.3 135.6C369.4 135.5 369.5 135.5 369.6 135.4Z" fill="#FFEAE6"/>
<path d="M94.4 342.8C96.4 345.6 98.2 348.4 99.2 351.6C98.9 351.7 98.6 351.9 98.3 352C97 352.6 98.1 354.5 99.4 353.9C99.6 353.8 99.9 353.7 100.1 353.6C100.7 353.9 101.7 353.6 102 352.9C108.4 351 115.4 352.9 121.9 353.7C129.5 354.6 137.2 354.9 144.8 354.8C158.8 354.7 173.2 351.7 186.3 346.7C186.4 347.5 186.6 348.2 186.7 349C185.4 353.7 186.1 360 186.3 364C186.5 367.9 186.8 371.8 187.4 375.7C187.6 377.2 187.8 379 188.2 380.7C187.1 381.1 186 381.5 185 381.8C184.9 381.8 184.8 381.8 184.7 381.8C184.4 381.8 184.1 381.9 183.9 382.1C179.8 383.3 175.7 383.9 171.1 383.9C164.5 383.9 157.9 383.1 151.4 382.7C143.9 382.3 136.4 382.4 128.9 382C120.7 381.6 112.2 380.5 104 381.3C103 375.6 99.1 370.5 96.5 365.6C92.5 358 94.1 351.1 94.5 343C94.4 342.9 94.4 342.8 94.4 342.8Z" fill="white"/>
<path d="M244.2 14.1C244.1 25.6 241 37 241.4 48.5C241.5 52.2 243.9 57.7 242.7 60.9C241.3 64.5 235.8 66 233.7 69.1C237.6 72.1 242.9 71.9 246.4 75.5C249 78.2 251.8 84.5 249.6 88.4C247.7 91.9 240.4 93.4 237 93.5C230.1 93.6 230.2 89.5 229 83.5C226.9 72.9 223.1 63 222.6 52C222.4 47.1 222.2 39.7 220.4 35.3C219.4 32.7 219 30.1 215.2 31.8C211.6 33.5 214.6 37.2 215.9 40.7C219.2 49.8 224.9 66.9 220.3 76.3C218.2 80.7 207.7 81.2 208.2 85.7C210.7 86.1 211.5 88.3 210.8 90.7C201.1 96.2 207.7 74.6 198.7 83.1C196.5 85.2 194.2 90.2 196.9 92.4C199.3 94.3 207.4 91.6 210.2 91.4C219.1 90.8 228.4 92.6 237.5 92.5C244.7 92.4 258.3 88 259.7 98.1C260.3 102.4 256.9 108.9 261.2 112.5C263.6 114.5 268.2 113.5 271.2 113.6C271.7 123.5 272 133.5 271.8 143.5C271.7 150.2 268.6 154.4 267.3 160.5C265.7 168.2 266.6 177.5 266.2 185.4C265.6 196.4 265.5 206.9 264 217.8C270.4 218.6 274.4 212 279 209.1C283.4 206.3 288.8 207.2 292.9 203.5C297.4 199.5 298.8 192.6 301.1 187.4C303.8 181.2 308 176.3 309.7 169.6C301.4 177.4 292.4 182.8 286.2 169.9C283.5 164.3 283.6 162.5 279.7 158.4C275.3 153.8 276.2 149.2 276 142.9C275.7 135.1 276.5 128.9 281.9 122.7C285.7 118.4 291.8 116.8 295.7 113.1C286.3 104.1 270.1 112.6 268.3 95.8C266.9 82.4 270.2 75.6 280.2 67.6C275.6 59.2 261.2 69.4 256.3 62.3C254 59 254.8 44.4 255.2 40.7C255.7 35.6 257.1 30.6 260.2 26.7C256.6 24.9 255.5 29.6 253.2 31.6C249.9 26.6 247.4 20.9 244.7 15.6C244.1 16.6 244.1 18.1 244.2 14.1Z" fill="#EABEB5"/>
<path d="M276.4 117.8C273.2 129.8 268.4 140.1 272.4 152.7C273.1 154.9 276 158.1 276.3 160C276.7 162.5 274.5 166 274.2 168.9C272.8 183.2 277.6 205.5 296.3 196C298.2 206.8 270.5 216.3 263.8 222C262.7 216.1 264.8 208.6 264.8 202.2C264.8 193.6 265.4 185.2 265.4 176.6C265.4 172.8 265.6 169.2 266 165.5C266.5 160.9 266.8 160.9 268.8 157.6C272.6 151.2 271.3 145.2 271 137.7C270.6 129 273 120.8 272.6 111.8C268.7 111.7 264.6 112.3 260.6 112.2C258.9 105.3 260.9 98.5 259.9 91.7C259 85.3 256 79 256.5 72.4C259.3 78.3 262.8 83.4 265 89.6C266.9 94.9 268.5 98.2 272.1 102.5C274 104.8 275.6 107.3 278.3 108.7C281 110.1 283.6 109.5 286 111.6C283.9 113.9 281 115.1 278.7 117.1C279.7 117.2 280.8 117.1 276.4 117.8Z" fill="#C9968D"/>
<path d="M182 85.5C179.3 90.1 176.1 84.8 175.7 81.8C170.8 81.5 173.2 73.2 173.3 70.2C172.8 77.3 163.7 77 159.2 74.7C159.3 77.6 160.6 79.5 159.1 82.4C156.4 87.4 153.6 85 152.9 80.5C151.1 69.5 159.7 60.8 158.7 49.8C158.3 45.4 157.3 41.2 161.3 38.2C163.2 36.8 169.2 36.7 170.4 34.7C173 30 162.1 29.8 159.3 29.8C158.4 26.1 158.9 21.6 156.7 18.3C156 26.6 156.3 35.2 153.1 43.1C150.2 50.3 144.1 52.8 137.4 55.7C137.6 58.5 138.7 60.2 139.8 62.7C142.1 68 142.4 74.2 141.3 80C140.7 83.5 138.7 90 134.3 89.8C127.6 89.6 128.6 77.5 128.7 73.1C128.9 62.9 131.7 52.9 132.2 42.6C132.4 38.9 133.4 33.1 129.7 30.8C127.9 39.5 130.6 48.7 126.3 57C124.6 60.2 121.8 63.7 118.3 65.1C114.8 66.5 112.7 64.9 110.6 68.1C108.5 71.4 111.7 81.6 111.4 85.6C111.2 89.5 110.4 92 108.1 95.3C103 102.4 94.3 110.1 85.2 110.9C87.7 117.9 92.5 122.8 93.1 130.8C93.5 136.6 94.9 144.7 93.1 150.3C92.2 153 89.9 154.3 88.9 156.6C87.3 160.3 89.7 164.4 88.4 169.2C84.6 183.3 72.3 170.9 66.8 164.7C67.5 171 72.5 177.7 75.4 183.2C78 188.1 78.7 194.7 82 199C87.9 206.8 101 211.5 109.2 216.8C112.4 213.5 108.3 205.3 107.7 201.6C107 196.9 107.5 192.3 108.5 187.7C109.7 181.6 112 175 111.7 168.8C111.5 163.7 111.1 165.8 107.5 163.3C99 157.3 101.9 146.6 102.2 137.2C102.4 129.3 103.8 121.6 101.9 113.8C106.8 112.7 111.2 115.1 112.9 109C114 105 111.7 97.3 115.2 94C116.9 92.4 124.3 94.1 126.8 94.1C135 94.3 143.1 94.3 151.3 94.1C163 93.8 174.7 93.4 186.4 93.6C186.2 91.2 184.6 89 182 85.5Z" fill="#EABEB5"/>
<path d="M184.5 90.9C182 90.5 178.1 91.5 174.8 90.2C172.5 89.2 174.1 88.6 171.2 88.5C169.6 88.5 167.4 89.5 165.6 89.6C162.5 89.9 158.1 90.1 155.3 88.9C151.6 87.2 152 84.1 149.7 81.8C145.4 88.8 138 91 130 90.9C120.7 90.8 119.9 81.5 119.9 73.9C118 84.3 114.3 97.2 107.1 105.1C104.2 108.2 99.5 110.9 97.3 114.1C95.1 117.4 96.5 123 96.7 127.1C96.9 131.6 97.1 136 97.6 140.4C98.3 147.6 98.8 153.8 95.2 159.7C103.9 164.5 105.8 179.4 103.8 188.3C102.9 192.3 99.5 197.6 95.5 199.3C87.5 202.6 84.4 194.2 78.5 191.5C79.9 199.3 86.9 206.7 94.1 209.4C97.3 210.6 99.8 211.2 102.6 213.2C105 214.9 107.1 217.3 110 217.8C110.4 208 110.1 198.1 110.1 188.4C110.1 180.1 111.8 171.6 111.3 163.4C101.7 164.3 101 146.9 101.3 140.1C101.7 130.9 102.5 121.6 102.1 112.2C106.1 111.9 109.9 112.8 113.8 113C113.9 109 112.1 98.3 115.4 95.2C118.1 92.6 128.4 94.4 132.3 94.2C137.3 94 142.1 92.8 147.1 92.6C160.5 92.2 174.2 92.5 187.4 93.4C187.7 92.1 187.2 91.9 184.5 90.9Z" fill="#C9968D"/>
<path d="M180.5 271.4C186.2 271.7 191.5 269.5 197.1 269.8C195.7 273.4 192.4 276.9 190.5 280.4C189.2 282.8 188.4 285.3 187.1 287.8C186.1 281.9 181.8 277.5 180.5 271.4Z" fill="#C9968D"/>
<path d="M333 241.2C329.1 251.7 322.8 261.7 317 271.2C312.4 278.6 308 285.2 302.2 291.7C297.4 297 291.2 300.9 285.9 305.8C281.2 310.1 277 314.5 271.2 317.5C261 322.9 247.8 326.5 236.3 327.2C224.9 327.8 212.6 325.9 205.9 315.8C200.1 307.1 196.9 295.5 199.6 285.2C201.9 276.4 206.7 267 207.7 258C201.6 263.6 197.6 271.4 193.6 278.6C192.5 280.6 191.4 282.7 190.8 284.9C190 287.5 190 290.8 188.7 293C188.1 286.4 186.1 282.2 183.1 276.4C181.5 273.4 181 269.7 179.1 267C175.6 262.2 169.3 260 165.1 256.3C167.3 260.3 169.6 263.7 170.7 268.4C172 273.9 172.2 279.5 172.8 285.1C173.8 295 174.6 308.5 166.4 315.7C158.7 322.5 151.4 328.9 140.8 330C134.7 330.6 125.8 332.2 120 330C117.4 329 115.4 326.9 113.1 325.5C110.6 324.1 107.8 322.9 105.2 321.9C98.6 319.4 92 317.5 85.8 314.1C82.5 312.3 79.1 310.4 75.6 308.9C76.4 310.5 77.6 311.9 78.6 313.5C80 315 81.5 316.6 82.5 318.2C83.9 320.5 85.1 323 86.6 325.4C89.5 330.3 92.8 334.9 94.8 340.2C96.1 343.7 97.6 347 99.4 350.3C101.4 353.7 104.1 352.6 108.1 352.6C119.9 352.6 131.5 354.2 143.2 353.7C156.7 353.2 169.4 351 182.4 347.5C185.3 346.7 188.5 345.4 191.5 346.2C193.9 346.8 195.9 348.3 198.3 349C201.2 349.8 204.1 350.4 207.1 350.9C214 352 220.9 352.5 227.9 352.9C235.5 353.3 243.1 354 250.7 354.3C255.2 354.5 259.7 354.5 264.2 354.8C267.4 355 271.6 356.1 274.7 355.7C277.5 355.3 279.2 352.4 280.2 349.6C280.9 347.7 281.1 345.7 281.9 343.9C283.3 340.8 286.3 338.4 288.2 335.5C292.1 329.7 293.7 322.4 296.6 316.1C298.8 311.3 299.9 306.9 304.1 303.5C307.9 300.5 310.1 297 313.1 293.2C316.9 288.5 322.3 284.2 325.1 278.8C326.9 275.3 327.8 271.4 329.3 267.7C330.8 264 332.6 257.4 332.7 253.6C332.8 251.7 332.3 249.8 332.4 248C332.1 246.1 333.4 243.3 333 241.2Z" fill="#EABEB5"/>
<path d="M25.6 147.9C25.8 154.8 23.4 161.4 24.8 168.3C26.1 175 31.1 178.7 35.1 183.8C36.8 185.9 36.8 189.1 39 190.4C42.3 192.3 48.4 188.9 51.2 191.6C57.2 197.5 47.9 202.9 45.3 206.2C42.8 209.4 44.1 211.7 44.5 215.3C44.9 219.2 43.8 222.9 43.2 226.5C40.9 220.7 40.1 212.5 36.5 207.5C33.3 203 28.5 200.4 26 195.3C23.4 190.1 23.3 183.8 21.9 178C21.1 174.4 20.4 170.6 19.3 167.1C18.8 165.4 17 163 17 161.3C16.9 156 24.2 153.3 25.6 147.9Z" fill="#EABEB5"/>
<path d="M356.7 153.7C356.7 158.7 357.1 164.9 354.6 169.9C352.7 173.7 349.8 180.9 346.5 183.1C344 184.7 341.1 183.9 339.1 185.8C336.9 187.9 338 190 338.4 192.5C338.9 195.3 339.9 196.9 338 199.6C336.6 201.6 334 201.6 333.8 204.4C333.6 206.7 336.3 209.3 336.9 211.5C337.6 214.1 336.5 217.4 339.2 218.7C342.1 214.7 342.3 210.2 345.1 206.3C347.8 202.5 349.3 199 351.5 195.1C356.1 186.6 356.5 176.3 357.9 166.8C358.6 161.5 360 160.4 356.7 153.7Z" fill="#EABEB5"/>
<path d="M272.7 335.9C264.5 342.2 256.1 346.4 245.9 347.8C236.8 349 225.9 350.4 217.4 346.9C209.6 343.6 201.7 339.7 196 333.3C193.3 330.3 191 326.9 189.7 323.1C188.4 319.5 188.1 315.1 186.2 311.9C182 318.6 183 327.3 178.4 334.1C172.5 342.7 165.7 344.1 155.5 345.9C138.3 349.1 115.6 351.8 101 340.1C97.6 337.3 93.5 331.2 88.7 331C93 337.2 98.4 344.7 100.1 352.1C101.5 352.5 103.1 351.8 106.4 351.2C119.7 348.6 133.2 356.4 147 354.7C154 353.8 160.9 352 168 351C172.4 350.4 176.6 350.4 180.8 349.2C183.6 348.4 186 346.7 188.9 346.4C193.7 345.9 200 348.1 204.7 349.1C212.7 350.8 220.6 351.6 228.5 353.2C237.7 355.1 248.3 354.3 257.7 354.8C264.2 355.1 270.7 356.2 277.2 356C277.4 352.1 277 350.6 279.1 347.5C281.5 344 283.8 340.5 286.1 337C290.4 330.4 297.6 323.3 298.1 314.4C290.6 322.8 281.5 329.1 272.7 335.9Z" fill="#C9968D"/>
<path d="M285.1 362.5C281.3 363.6 277.7 365.6 273.8 366.7C266.8 368.7 259.6 369.1 252.4 369.9C240.6 371.2 226.4 373.2 214.8 370C207.3 368 189.3 357.9 199.8 349.6C192.6 346.4 177.3 346.7 171.4 351.8C177.7 355.5 181.6 363.1 180 370.8C178.4 378.5 171.2 378.1 164.7 378.7C148.1 380.3 128.6 379.5 112.8 374.1C103.2 370.8 106.8 360.1 106.3 351.7C103 351.5 99.7 352.6 97.7 349.7C96.4 347.8 98.1 344.8 95.3 343.8C94.4 350.4 92.7 355.9 94.5 362.8C96.2 369.6 100.1 375.3 102.8 381.6C126.8 383.3 151.3 383.3 175.4 383.3C183.8 383.3 191.4 382.1 199.7 382.1C207.5 382.1 215 380.7 222.8 380.4C230.6 380.1 238.4 380.8 246.1 380.4C257.9 379.8 269.8 380.9 281.5 380.3C281.3 374.7 285.3 370 285.1 362.5Z" fill="#CECECE"/>
<path d="M141.4 63.3C143.3 62.5 148.7 60.6 149.4 63.8C149.5 64.2 149.2 64.4 148.9 64.4C147.7 64.2 146.9 63.5 145.6 63.7C144.4 63.8 143.2 64.3 142 64.7C141.2 65.1 140.6 63.7 141.4 63.3Z" fill="#231F20"/>
<path d="M41.2 202C41.5 202.2 41.7 202.6 41.4 203C41.1 203.5 40.7 204 40.3 204.4C39.9 204.8 39.4 205.3 38.7 205.4C38.2 205.5 38 204.8 38.1 204.4C38.3 204 38.8 203.7 39.2 203.3C39.6 203 39.9 202.6 40.2 202.2C40.5 202 40.9 201.8 41.2 202Z" fill="#231F20"/>
<path d="M235.8 6.10001C230.3 4.30001 225.2 10.5 223.5 15.1C221.6 20.2 221.7 25.8 222 31.1C222.3 36 223.1 40.9 223.5 45.9C223.8 49.7 223.9 53.6 224.6 57.4C225.3 61 226.7 64.1 228 67.5C230.6 74.4 230.6 81.4 231.4 88.7C231.9 93.7 233.1 98.6 235.4 103.1C236.1 104.4 236.8 105.8 237.5 107.1C236.4 107.1 235.3 107.1 234.2 107.1C233.2 105.2 232.1 103.3 231.3 101.3C227.9 92.7 229 83.5 227.1 74.6C226.2 70.2 224.1 66.2 222.8 61.9C221.7 58.4 221.4 54.7 221.1 51C220.6 44.5 219.4 37.7 219.1 30.9C219 30.9 219 30.9 218.9 30.9L219 28.8C218.9 24.2 219.3 19.7 220.7 15.4C223.4 7 233 -0.700005 240.7 6.9C246.3 12.4 250.2 22.5 250.7 30.8L248.8 31.1C248.3 27.2 247 23.2 245.6 19.6C244 14.7 241 7.70001 235.8 6.10001Z" fill="#231F20"/>
<path d="M165.9 80.7C167.6 81.4 169.8 82.2 171 83.6C171.2 83.9 171.1 84.6 170.6 84.5C168.9 84.3 167.4 83.2 165.9 82.5C163.8 81.5 161.6 80.7 159.4 80.2C158.6 80 159 78.9 159.7 79C161.9 79.3 163.9 79.8 165.9 80.7Z" fill="#231F20"/>
<path d="M197.5 273.5L197.4 273.6L196.1 273.5L196 273.4L194.5 272.7C195.2 271.6 196 270.6 196.8 269.6C199.6 261.5 208.3 255 213.8 249.2C221.5 241.2 229.6 234 240.4 230.4C246.5 228.3 253.6 228.5 258.8 224.3C262.9 221 266.4 217.6 271 214.9C280.2 209.3 289.9 205 296.3 196.3C295.8 196.4 295.2 195.8 295.5 195.3C296.1 194.6 296.6 193.8 297.1 193.1L298.5 193.9C298.8 194.1 299.1 194.5 298.8 194.9C293.9 203.9 286 209 277.3 214C272.3 216.9 267.4 219.8 263.2 223.7C259.3 227.4 255.9 229.5 250.5 230.8C244.2 232.3 238.3 233.7 232.7 236.9C227.3 240 222.5 244 218.2 248.5C214.5 252.4 210.6 256.1 206.9 260C203 264 200.5 268.6 197.5 273.5Z" fill="#231F20"/>
<path d="M182 272.9C182.1 273.1 182.2 273.3 182.3 273.5C182.2 273.4 182.1 273.3 182 273.1C182 273.1 182 273.1 182 273C182 273 182 273 182 272.9Z" fill="#231F20"/>
<path d="M33.2 188C34 187.4 35 188.7 34.3 189.4C33 190.7 32.1 192.1 31.6 193.9C31.4 194.7 31.2 196.6 29.9 195.9C29.6 195.7 29.4 195.4 29.4 195.1C29.5 192.3 31 189.6 33.2 188Z" fill="#231F20"/>
<path d="M232.4 63.7C231.1 63.6 230.3 64.2 229.1 64.4C228.8 64.5 228.5 64.2 228.5 63.8C229.3 60.5 234.6 62.5 236.5 63.3C237.3 63.6 236.7 65 235.9 64.7C234.8 64.3 233.7 63.8 232.4 63.7Z" fill="#231F20"/>
<path d="M267.2 65.3C267 66.4 266.5 67.4 265.7 68.1C265 68.7 263.6 69.6 262.7 69.1C262.4 68.9 262.2 68.5 262.4 68.1C262.7 67.6 263.4 67.5 263.8 67.3C264.8 66.8 265.7 66.1 266.1 65C266.4 64.3 267.4 64.6 267.2 65.3Z" fill="#231F20"/>
<path d="M261 73.9C265 72.7 266.7 69.8 270 67.6C273.1 65.5 276.4 64.9 280.1 65.2C280.8 65.2 280.8 66.3 280.1 66.3C274.6 66.3 271 68.2 267.4 72.3C265.7 74.3 263.8 75.7 261.2 75.4C261.8 76.9 262.4 78.5 262.8 80.1C265.1 89.6 263.2 99.3 265.9 108.8C266.5 110.8 267.1 112.8 267.8 114.8C268.4 114.1 269.5 113.5 270.2 113.1C271.3 112.3 272.6 111.6 273.9 111.3C274.6 111.1 275 112.1 274.4 112.4C273.3 113.1 272.2 113.9 271.1 114.7C270.3 115.3 269.3 116.3 268.3 116.4C270.1 121.7 271.8 127.1 272.2 132.8C272.7 140.5 271.9 149.8 278.4 155.3C278.9 155.7 279 156.2 278.8 156.7C282 157.6 285 158.9 288.1 160.1C289 160.4 288.6 161.8 287.7 161.5C281.5 159.7 276.1 157.5 269.4 158.4C266.2 158.8 262.9 159.8 259.7 160.3C259.8 159.8 259.9 159.2 259.9 158.7L260.7 158.1C261 157.8 261.3 157.4 261.6 157.1C265 156.5 268.3 156 271.5 155.9C272.6 155.8 273.7 155.9 274.8 156C269.2 150 269.8 140.7 269.3 133C268.5 121.5 262.2 111.2 261.3 99.7C260.9 93.9 261.4 88.1 260.4 82.4C259.4 77.2 256.5 72.8 254 68.2C249.6 60.2 247.5 51.8 248 42.6C248.1 39.8 248.6 37 249.5 34.3C249.4 34.2 249.4 34 249.4 33.9C249.4 33 249.3 32.1 249.2 31.2L251.1 30.9C252.4 28.6 254.1 26.6 256.5 25.2C259.4 23.5 263.1 22.3 266.3 23.9C269.4 25.5 271.1 29 273.1 31.7C276.5 36.3 280.5 40.5 283.4 45.5C285.7 49.6 287.3 54 288.5 58.6C290 64 291.2 69.6 293.3 74.9C295.5 80.5 298.7 85.6 301.9 90.7C304.7 95.1 307.1 99.1 308.5 104.1C310 109.3 312.3 113.4 315 117.9C319.3 125 323.6 134.7 323.7 143.1L322.3 143.2C321.9 137.9 319.5 132.7 317.4 127.8C315.5 123.3 313.2 119.3 310.7 115.1C308.2 111 307.2 106.8 305.7 102.3C304 96.9 300.3 92.4 297.4 87.6C292.4 79.4 289.6 71.1 287.1 61.9C285.7 56.7 284.1 51.5 281.4 46.8C278.9 42.5 275.6 38.8 272.5 35C270.2 32.1 267.6 26.1 263.4 25.8C259.2 25.5 255.1 29.2 253.3 32.7C249.8 39.4 250.3 49 252.2 56.1C253.9 62.8 258.2 68.4 261 74.5C260.7 74 260.8 73.9 261 73.9Z" fill="#231F20"/>
<path d="M337.7 204.4C337.3 204 336.9 203.5 336.6 203C336.4 202.7 336.5 202.2 336.8 202C337.1 201.8 337.5 202 337.7 202.2C338 202.6 338.3 203 338.7 203.3C339 203.6 339.6 203.9 339.8 204.4C340 204.8 339.8 205.4 339.2 205.4C338.6 205.4 338.1 204.9 337.7 204.4Z" fill="#231F20"/>
<path d="M182 273.1C182.1 273.3 182.2 273.4 182.3 273.5C182.2 273.3 182.1 273.1 182 272.9C182 273 182 273 182 273.1ZM100.5 213.8C91.8 208.8 83.9 203.7 79 194.7C78.8 194.3 79 193.9 79.3 193.7C79.1 193.4 78.8 193.2 78.6 192.9L80 191.9C80.7 193 81.5 194 82.3 195.1C82.7 195.6 82.1 196.2 81.6 196.1C88 204.9 97.8 209.2 106.9 214.7C111.4 217.5 115 220.8 119.1 224.1C124.2 228.3 131.4 228.2 137.5 230.2C148.2 233.8 156.3 241 164.1 249C168.9 254 176.1 259.5 179.7 266.2C182.6 268.5 184.2 271.5 185.3 274.8C185.4 274.8 185.5 274.9 185.5 275C187.1 277.1 188.4 279.9 189.1 282.7C190.6 279.2 192.3 275.8 194.4 272.6L195.9 273.3C194.9 275.1 193.9 276.9 193.1 278.8C194 277 195 275.2 196 273.5L197.3 273.6C195.8 277 194.2 280.3 193 283.8C191.2 289.1 190.1 294.6 189.3 300.2C188.5 305.7 187.4 311.1 186.5 316.5C186 325.4 186 334.3 188 343.1C188.1 343.1 188.3 343.1 188.4 343.2C188.9 343.5 189.4 343.8 189.8 344.2C190 344.1 190.2 344 190.5 344.1C193.7 345.7 197.1 346.9 200.5 347.8L200.1 349.3C199.8 349.2 199.5 349.1 199.2 349C199.1 349 199 349.1 198.9 349.1C197.7 349.2 196.4 348.8 195.2 348.7C194.2 348.6 193.3 348.5 192.4 348.1C192.2 348 191.9 347.9 191.7 347.8C189.8 348.4 189 350.4 188.6 352.8C188.7 353.9 188.6 355 188.3 356.2C188.2 357.5 188.1 358.8 188 359.8C188 361.2 188 362.6 188.1 364.1C188.4 370.2 189.6 375.9 190.9 381.8C220.8 381.5 250.7 379.4 280.7 379.7C280.7 379.6 280.7 379.4 280.7 379.3C282.9 370.5 287.6 355.9 280.5 348.4C280.3 348.2 280.3 348 280.3 347.9L280.5 347.6C280.7 347.4 281.1 347.3 281.4 347.6C289.7 355.3 285.2 370.6 282.8 379.9C282.7 380.2 282.6 380.3 282.4 380.5C282.4 380.8 282.2 381.2 281.7 381.2C251.5 381.7 221.4 383.7 191.2 384C191 384.8 189.9 385.2 189.3 384.3C189.2 384.2 189.2 384.1 189.1 384C188.2 384 187.2 384 186.3 384C182.9 385.9 178.1 386 174.6 386.2C167.5 386.5 160.5 385.7 153.4 385.2C136.8 384 119.9 384.8 103.4 382.8C102.9 383.2 102.1 383.1 101.9 382.3C100.2 375.6 96 370.1 93.3 363.9C90.3 357 92.2 350.1 93.2 343C93.2 342.9 93.2 342.8 93.3 342.8L94.3 342.9C94.3 343 94.3 343 94.3 343.1C93.9 351.2 92.3 358.1 96.3 365.7C98.9 370.7 102.8 375.8 103.8 381.4C112 380.6 120.5 381.7 128.7 382.1C136.2 382.5 143.7 382.4 151.2 382.8C157.8 383.2 164.3 383.9 170.9 384C175.5 384 179.6 383.4 183.7 382.2C183.9 382 184.1 381.9 184.5 381.9C184.6 381.9 184.7 381.9 184.8 381.9C185.9 381.6 186.9 381.2 188 380.8C187.6 379.1 187.4 377.3 187.2 375.8C186.6 371.9 186.3 368 186.1 364.1C185.9 360.1 185.2 353.8 186.5 349.1C186.4 348.3 186.3 347.5 186.1 346.8L185.9 345.3C185.8 344.7 185.8 344 185.9 343.3C182.6 328.4 184.4 312.9 185.9 297.6C185.4 295.2 184.8 292.8 184.3 290.3C183.8 287.4 183.6 284.4 183 281.5C182.3 278.3 181.4 275.6 179.7 272.8C179.2 271.9 178.8 271.2 178.5 270.4C176.2 266.7 174 263.2 170.9 259.8C167.2 255.9 163.3 252.2 159.6 248.3C155.3 243.8 150.5 239.8 145.1 236.7C139.4 233.5 133.5 232.1 127.2 230.6C121.9 229.4 118.5 227.2 114.5 223.5C110.4 219.6 105.5 216.7 100.5 213.8Z" fill="#231F20"/>
<path d="M143.8 58.2C145.2 58.5 147 58.5 147.8 59.8C148 60.1 147.8 60.5 147.5 60.6C146 61.2 143.7 60.1 142.2 59.7C140.4 59.2 138.9 58.4 137.5 57.2C137 56.7 137.7 55.9 138.3 56.2C140 57.3 141.9 57.8 143.8 58.2Z" fill="#231F20"/>
<path d="M24.7 148.4C26 144.6 22.9 139 19.6 137.1C16.5 135.3 12.2 135.9 8.8 135.6C8.7 135.6 8.60001 135.5 8.50001 135.5C8.00001 136.3 7.6 137.3 7.3 138.4C6 144.6 12.1 149.1 15 153.9C16 155.6 16.9 157.3 17.6 159.1C18 157.6 18.8 156.2 19.8 154.9C21.3 152.7 23.8 151 24.7 148.4ZM66.6 160.2C68.6 166.7 69.9 173 72.8 179.2C74.9 183.7 77.3 187.9 80.1 191.9L78.7 192.9C71.8 184.5 67.6 173.9 65 163.5C61.7 150.4 49 139.7 37.2 134C31.8 131.4 26.2 130.4 20.3 130.8C16.3 131.1 11.9 131.6 9.3 134.3C17.3 133.5 24 135 26.6 143.6C29 151.6 19.7 154.7 19.2 162C19.2 162.2 19.1 162.5 19 162.6C19.6 164.3 20 166 20.5 167.6C22 173.3 22.9 179.1 24.2 184.9C25.4 190.3 27.3 194.6 30.4 199.1C36.8 208.6 41.6 219.5 44.3 230.7C47.1 242.1 46.8 254 49.8 265.5C51.3 271.3 53.6 276.5 57.4 281.1C60.5 284.8 64 288 67 291.8C74.8 301.7 81.1 312.6 86.7 323.8C89.5 329.2 92 334.7 95.5 339.7C97.9 343.2 100.4 346.6 101.7 350.6C106.1 349.4 110.8 349.8 115.4 350.5C123.6 351.7 131.7 352.5 140.1 352.6C148.6 352.7 156.9 352.2 165.3 350.5C172.3 349.1 179.1 346.8 186.1 345.2L186.3 346.7C173.2 351.7 158.8 354.7 144.8 354.8C137.2 354.9 129.5 354.6 121.9 353.7C115.5 352.9 108.4 351 102 352.9C101.7 353.6 100.8 353.9 100.1 353.6C99.9 353.7 99.6 353.8 99.4 353.9C98.1 354.5 97 352.6 98.3 352C98.6 351.9 98.9 351.7 99.2 351.6C98.2 348.4 96.4 345.6 94.4 342.8L93.4 342.7C93.6 342.4 94 342.3 94.2 342.5C92.5 340.2 90.8 337.9 89.5 335.4C85.9 328.7 82.8 321.8 79.1 315.1C75.5 308.5 71.4 302.2 66.9 296.2C62.9 290.8 57.8 286.3 53.8 281C47 272.1 45.5 260.2 44.3 249.5C42.7 235.8 40.1 223.1 33.9 210.6C31.2 205.1 27 200.3 24.4 194.8C22 189.7 21.2 183.9 20.1 178.5C18.9 172.6 17.8 166.6 15.5 160.9C13.2 155.3 9.10002 151.3 6.10002 146.2C1.30002 138 7.20002 130.2 15.6 128.8C26.2 127.1 35.7 129.5 44.6 135.4C47.9 137.6 51.4 140.2 54.6 143.1L55.6 144C60.5 148.5 64.7 153.9 66.6 160.2Z" fill="#231F20"/>
<path d="M348.6 195C348.6 195.3 348.4 195.7 348.1 195.8C346.8 196.5 346.6 194.7 346.4 193.8C345.9 192 345 190.6 343.7 189.3C343 188.6 343.9 187.3 344.8 187.9C347 189.6 348.5 192.3 348.6 195Z" fill="#231F20"/>
<path d="M344.9 177.6C347 177.5 352.2 176.5 353.1 179.3C353.2 179.6 352.9 179.9 352.6 179.9C351.4 180 350.2 179.2 348.9 179.1C347.6 179 346.2 179 344.9 179C344 178.9 344 177.6 344.9 177.6Z" fill="#231F20"/>
<path d="M191.8 103.7C191.7 103 190.7 103 190.7 103.7C190.7 104 190.7 104.3 190.5 104.6C190.6 103.2 190.7 101.7 190.8 100.3C191.4 94.6 194.1 75.7 203.5 79.1C202.8 72.5 201.7 65.9 201.4 59.2C201 47.4 202.3 26 219 28.6L218.9 30.7C210.1 30 206 36.1 204.6 44.3C201.7 60.5 207 76.8 206.6 93C206.5 97.2 206.2 101.4 206.3 105.6C205.4 105.6 204.5 105.5 203.6 105.5C203.6 97.7 204.5 89.8 203.8 82C203.8 81.8 203.8 81.6 203.7 81.4C196.7 80.4 195 88.4 193.9 94.3C193.3 97.8 192.9 101.4 192.7 105C192.3 105 191.9 105 191.4 105C191.8 104.5 191.9 104.1 191.8 103.7Z" fill="#231F20"/>
<path d="M33.1 177.6C34 177.6 34 178.9 33.1 179C31.8 179.1 30.4 179 29 179.1C27.7 179.2 26.5 180 25.3 179.9C25 179.9 24.7 179.6 24.8 179.3C25.8 176.4 31 177.4 33.1 177.6Z" fill="#231F20"/>
<path d="M272.2 117.8C277.2 113.9 285.5 112.5 291.6 111.7C292.2 111.6 292.4 112.7 291.7 112.8C288.4 113.4 285.2 114.2 282.1 115.3C279 116.4 276.1 118.3 272.9 119.1C272.3 119.3 271.6 118.3 272.2 117.8Z" fill="#231F20"/>
<path d="M86.4 111.7C92.5 112.5 100.8 113.9 105.8 117.8C106.4 118.3 105.7 119.3 105.1 119.1C101.9 118.3 99 116.4 95.9 115.3C92.8 114.2 89.5 113.3 86.3 112.8C85.6 112.7 85.7 111.6 86.4 111.7Z" fill="#231F20"/>
<path d="M163.1 75.5C164.2 75.8 165.5 75.8 166.5 76.4C166.8 76.6 166.8 77.1 166.5 77.2C165.4 77.8 163.9 77.3 162.7 77C161.8 76.6 162.2 75.2 163.1 75.5Z" fill="#231F20"/>
<path d="M158 19.2C158.5 22.3 158.7 25.5 158.6 28.6L158.8 30.6C158.7 30.6 158.7 30.6 158.6 30.6C158.5 32.8 158.3 35 158 37.2C157.4 43.3 157.1 49.4 156.3 55.5C155.7 60 154.2 63.8 152.6 68C151 72.5 150.1 77 149.8 81.8C149.3 89.7 148.4 97 145.1 104.2C144 104.3 142.8 104.3 141.7 104.5C145.2 97.2 146.5 90.2 147 81.8C147.5 74.4 150 68.4 152.2 61.5C154.2 55.4 154 48.9 154.8 42.6C155.4 37.3 156.1 32 156.1 26.6C156.1 21.2 155.5 15.3 152.2 10.8C148.9 6.3 143.4 3.90001 139 8.00001C135.7 11 133.1 15.7 131.3 20.6L129.6 20C129.8 19.3 130.1 18.6 130.4 17.9C132.3 13.1 134.9 7.50003 139.5 4.70003C148.9 -0.899973 156.7 11.4 158 19.2Z" fill="#231F20"/>
<path d="M80.8 83C86.4 73.1 87.8 62.2 91.9 51.7C93.9 46.6 96.7 42.1 100.1 37.8C103.1 34 105.9 29.7 109.1 26.1C113.7 20.9 120.8 22.8 125.1 27.6C125.9 28.5 126.6 29.5 127.2 30.6C127.5 27 128.4 23.5 129.7 20.1L131.4 20.7C129.9 25.1 129 29.6 128.8 33.5C128.8 33.6 128.8 33.8 128.7 33.9C130.3 38.5 130.4 43.7 130.1 48.4C129.5 57.9 125.4 65.3 121 73.5C115.4 84 118.3 95.5 115.7 106.7C113.4 116.6 109.2 125.5 108.7 135.8C108.4 142.6 108.2 150.5 103.3 155.7C104.4 155.6 105.5 155.5 106.6 155.6C107.9 155.7 109.2 155.8 110.5 155.9C110.5 156.8 110.6 157.6 110.8 158.5C110.1 158.4 109.4 158.3 108.7 158.2C102 157.3 96.7 159.6 90.4 161.3C89.5 161.6 89.1 160.2 90 159.9C93.1 158.8 96.2 157.4 99.3 156.5C99.1 156.1 99.2 155.5 99.7 155.1C106.9 149.1 105.2 138.5 106.1 130.1C106.6 125.3 108.1 120.7 109.7 116.2C108.7 116.1 107.7 115.1 107 114.5C105.9 113.7 104.8 113 103.7 112.2C103.1 111.8 103.5 110.9 104.2 111.1C105.5 111.4 106.8 112.2 107.9 112.9C108.6 113.3 109.6 113.9 110.2 114.6C111.8 109.8 113.4 105 113.8 100C114.6 91.7 113.4 83.1 116.8 75.3C114.1 75.7 112.2 74.2 110.5 72.3C106.9 68.2 103.3 66.4 97.8 66.3C97.1 66.3 97.1 65.3 97.8 65.2C101.5 64.9 104.8 65.5 107.9 67.6C111.2 69.8 112.9 72.7 116.9 73.9C117.1 74 117.2 74.1 117.3 74.3C121.4 65.8 126.4 58.7 127.2 48.9C127.7 41.7 127.6 32.4 121.1 27.7C119 26.2 115.7 24.7 113.1 25.9C111.3 26.8 110.1 28.8 108.9 30.3C106.3 33.8 103.5 37.2 100.8 40.6C94.4 48.9 92.1 58.3 89.3 68.2C86.6 77.6 81.8 85.7 76.6 93.8C73.9 98 72.6 102 71.1 106.7C69.9 110.7 67.9 114 65.7 117.5C63.1 121.7 61.2 126.2 59.4 130.7C57.8 134.7 56.1 138.9 55.9 143.3C55.9 143.6 55.7 143.8 55.5 143.9L54.5 143C54.5 133 60.2 122.5 65.3 114.2C68.3 109.3 69.1 104 71.3 98.7C73.7 93.2 77.8 88.3 80.8 83Z" fill="#231F20"/>
<path d="M230.1 59.8C231 58.5 232.7 58.5 234.1 58.2C236.1 57.8 238 57.3 239.7 56.2C240.3 55.8 241 56.7 240.5 57.2C239.1 58.4 237.6 59.2 235.8 59.7C234.3 60.1 232 61.2 230.5 60.6C230.2 60.6 229.9 60.2 230.1 59.8Z" fill="#231F20"/>
<path d="M353.3 148.4C354.1 151 356.7 152.7 358.3 154.8C359.3 156.1 360.1 157.5 360.5 159C362.4 154.6 365 151 367.9 147.2C370.7 143.6 371.7 138.7 369.6 135.4C369.5 135.5 369.4 135.5 369.3 135.5C365.8 135.8 361.6 135.2 358.4 137C355.1 139 352.1 144.6 353.3 148.4ZM200.7 347.8C211 350.6 222.2 351 232.7 351.8C240.9 352.3 249 352.9 257.2 353.2C263.5 353.4 270.1 353 276.4 353.4C276 353.1 275.8 352.7 276 352.1C277.3 346.6 281 342.3 284 337.7C287.7 332.2 290.3 325.8 293.4 319.9C299.5 308.2 306.4 296.6 315.5 286.9C319.2 283 323.1 279.1 325.4 274.2C327.9 269 329.1 263.1 330 257.5C332 245.7 332.3 234 336.3 222.6C338.3 217 340.5 211.4 343.4 206.3C345.8 201.9 349.2 198.1 351.3 193.5C353.9 188.1 354.6 181.7 355.8 175.8C356.7 171.4 357.6 167.1 359.1 162.8C359 162.6 358.9 162.4 358.9 162.2C358.4 154.8 349.1 151.8 351.5 143.8C354.1 135.1 360.9 133.7 368.9 134.5C368 133.5 366.6 132.6 364.9 132C354.3 128.7 343.2 132 334.3 138C329.1 141.5 324.1 145.6 320.1 150.4C315.5 155.8 314 161.2 312.2 167.8C309.7 177 305.1 186.5 298.8 193.8L297.4 193C301.1 187.8 304.3 182.2 306.8 176.2C309.5 169.9 310.1 162.8 313.1 156.6C315.2 152.1 318.6 147.8 322.5 143.9C322.4 143.8 322.3 143.6 322.3 143.4C322.3 143.2 322.3 143.1 322.3 142.9L323.7 142.8C329.1 137.8 335.5 133.7 341.5 131.1C346.1 129.1 351 128.1 355.9 128.2C360 128.3 365.1 128.6 368.7 130.8C372.2 132.9 374 137.1 373.8 141.1C373.5 145.5 370.3 148.7 367.7 152C359.9 162.4 359.1 175.7 356.2 187.8C354.8 193.7 351.9 198 348.7 203C345.2 208.5 342.4 214.4 340.1 220.6C335.4 232.9 334.9 245.4 332.8 258.2C331.9 263.7 330.6 269.2 328.4 274.4C326.2 279.5 322.6 283.5 318.9 287.4C309.8 297 302.8 308.2 296.7 319.9C293.6 325.7 291.1 332 287.7 337.5C285.6 340.9 282.9 344 280.9 347.5L280.7 347.8C279.9 349.3 279.2 351 278.8 352.7C278.7 353 278.6 353.3 278.3 353.4C279.4 353.5 280.4 353.6 281.5 353.8C282.2 353.9 282.2 355.2 281.5 355.3C273 356.6 263.6 355.4 255.1 355.1C246.9 354.8 238.8 354.2 230.6 353.6C220.6 352.9 210.2 352.2 200.5 349.3L200.7 347.8Z" fill="#231F20"/>
<path d="M212 82.5C210.5 83.2 209 84.3 207.3 84.5C206.8 84.6 206.7 83.9 206.9 83.6C208.1 82.2 210.3 81.4 212 80.7C214 79.9 216.1 79.3 218.2 79C218.9 78.9 219.3 80 218.5 80.2C216.3 80.6 214.2 81.5 212 82.5Z" fill="#231F20"/>
<path d="M112.3 68C111.5 67.3 111 66.3 110.8 65.2C110.7 64.5 111.6 64.2 111.9 64.9C112.3 66 113.2 66.7 114.2 67.2C114.7 67.4 115.3 67.5 115.6 68C115.8 68.3 115.7 68.8 115.3 69C114.4 69.6 113 68.6 112.3 68Z" fill="#231F20"/>
<path d="M171.3 86.6C171.5 79 173.1 71.5 173.7 64C174.6 52.5 175.9 29.1 158.8 30.7L158.6 28.7C166 27.5 171.6 31.4 174.1 38.4C178.9 51.5 175.6 65.5 174.3 79.2C178.3 78.1 181.7 81.3 183.5 85C186.3 90.9 187.4 97.8 187.7 104.8C187.5 104.8 187.2 104.8 187 104.8C186.6 104.4 186.3 104 186.1 103.4C186 103.1 185.5 103.2 185.5 103.5C185.6 103.9 185.7 104.3 185.9 104.7C185.6 104.7 185.3 104.7 185 104.7C184.8 101 184.4 97.3 183.8 93.7C182.7 87.9 180.9 80.2 174.1 81.2C173.9 83.5 173.8 85.8 173.8 88.1C173.8 93.7 174.4 99.4 174.3 105.1C173.4 105.2 172.4 105.3 171.5 105.4C171.7 99.2 171.1 92.9 171.3 86.6Z" fill="#231F20"/>
<path d="M211.5 76.3C212.5 75.8 213.8 75.8 214.9 75.4C215.8 75.1 216.2 76.5 215.3 76.8C214.2 77.2 212.7 77.7 211.5 77C211.2 77 211.2 76.5 211.5 76.3Z" fill="#231F20"/>
<path d="M287.1 97.6C287.1 97.6 287.2 97.6 287.1 97.6C286.9 103.7 287.1 109.8 287.1 115.9C287.1 121.7 286.6 127.4 286.4 133.2C278.6 132.6 270.9 133.2 263.2 133.7C258.9 134 254.7 134.1 250.4 134.2C246 134.3 241.6 134.2 237.2 134.3C234 134.3 230.9 134.3 227.7 134.3C221 134.3 214.2 134.3 207.5 134.3C200.3 134.3 193 134.3 185.8 134.3C171.9 134.3 158.1 134.3 144.2 134.4C140.8 134.4 137.4 134.4 134 134.4C129.7 134.4 125.3 134.3 120.9 134.2C109.2 133.8 97.5 133.3 86 134.3C86 134.3 86 134.3 86 134.2C84.7 126.8 85.6 119.4 85 112C84.6 107.1 84.1 102.7 85 97.9C85.3 97.9 85.5 98 85.8 98C89.2 98.4 93.1 98.6 96.5 98.1C96.5 99.1 96.6 100.1 96.7 101.1C96.7 101.2 96.8 101.4 96.8 101.5C96.5 108.7 96.5 115.9 96.9 123.1C96.9 123.9 97.5 124.4 98.1 124.5C98 125.1 98.4 125.8 99.2 125.8C128.5 126.6 158 125.2 187.3 125.2C215.7 125.2 244.1 124.6 272.5 124.5C273.4 124.9 274.5 124.6 274.8 123.5C276.8 116.2 276.2 108.6 275.9 101.1C275.8 99.6 275.8 98.1 275.8 96.6C276.9 97.4 278.8 97.4 280.1 97.5C282.3 97.5 284.7 97.6 287.1 97.6Z" fill="#9E9E9E"/>
<path d="M286.2 136.1C284.9 138.1 285.8 141.6 285.7 143.9C285.4 148.3 283.2 151 278.5 151C270.9 150.9 271.7 141.5 271 136.1C276 135.8 281.1 135.7 286.2 136.1Z" fill="white"/>
<path d="M278.5 154.6C278.7 154.6 278.9 154.6 279.1 154.6C277.7 178.9 278 203.4 278.2 227.8C275.1 230.2 271.8 232.4 268.1 233.6C267.8 233.7 267.4 233.8 267.1 233.9C267.2 230.2 267.2 226.5 267.3 222.8C267.3 213.4 268.2 203.9 267.3 194.5C267.2 193.8 266.7 193.5 266.2 193.5C266 193.2 265.6 193 265.2 193C253.3 192.9 241.1 192.9 229.3 194C229.3 194 229.3 194 229.2 194C229 193.9 228.8 194 228.6 194.1C226.4 195.4 226.9 199.6 226.9 201.8C227 207.1 227.2 212.3 227.2 217.6C227.2 225 227.2 232.4 227.2 239.9C227.2 243.9 226.7 248.2 226.8 252.4C225.6 253.4 224.5 254.4 223.4 255.4C222.4 256.3 221.5 257.2 220.5 258.1C220.4 258.1 220.2 258.1 220.1 258.1C219.5 250.1 220.4 242 220.5 234C220.6 227.9 220.7 221.7 220.2 215.6C219.8 209.6 219.1 203.6 220 197.7C220.1 197.4 220.1 197.1 220.1 196.9C220.1 196.7 220.1 196.6 220.1 196.5C220.3 195.8 220.1 195 219.2 194.8C214.7 193.8 210.2 194.7 205.6 194.7C199.9 194.7 194.2 194.7 188.5 194.7C182.6 194.7 176.7 194.6 170.8 194.5C165.7 194.4 160.5 195.1 155.4 194.6C154.5 194.5 154.3 195.4 154.6 196L154.4 196.1C154.1 195.4 152.9 195.5 152.8 196.5C151.8 212.5 153.2 228.6 153.2 244.6C153.2 245.9 152.4 251.9 152.8 255.9C150.6 254.4 148.6 252.6 146.7 250.8C146.1 250.2 145.4 249.6 144.8 249C144.9 248.4 144.9 247.8 144.9 247.3C145.2 241.3 145.5 235.3 145.6 229.3C145.7 223.8 145.6 218.4 145.5 212.9C145.4 207.4 144.4 201.7 145.2 196.2C145.3 195.5 144.7 195.1 144.3 195.1C144.1 194.9 143.7 194.7 143.3 194.7C136.4 194.7 129.5 194.2 122.7 194.5C117.1 194.7 111.5 195.8 105.9 194.6C104.9 194.4 104 196 105.1 196.4C105.4 196.5 105.7 196.7 106 196.8C105.4 207.5 105.7 218.4 105.9 229.1C105.9 229.9 105.9 231 105.8 232.1C104.7 231.6 103.6 231 102.5 230.3C98.8 227.8 96.4 223.7 92.3 221.7V221.6C93.3 222.1 94.2 222.6 95.1 223.3C95.1 214.2 95 205 95 195.8C95 189 95.1 182.3 95.5 175.5C95.8 170.4 95.2 165.2 95.5 160.1C95.5 160 95.5 159.8 95.5 159.6C100.7 158.2 102.7 153.2 103.3 147.8C105.2 153.7 109.9 159 115.8 157.4C119.7 156.4 121.5 152.3 122.5 148.8C124.2 154.9 128.1 160 135.6 158.4C140.7 157.3 143.2 151.8 144 146.1C145.4 151.6 149.4 155.7 156.3 155.1C160.1 154.8 163.6 152.4 165.8 149.1C165.8 149.3 165.9 149.5 165.9 149.7C167 154.3 170.3 157.4 175.1 157.5C179.6 157.6 183.2 155.3 184.8 151.1C184.9 151 184.9 150.8 184.9 150.7C186.5 153.9 189.1 156.4 192.8 156.9C197.2 157.5 202 155.5 203.9 151.3C204.5 149.9 204.8 148.3 205 146.7C205.2 147.2 205.3 147.6 205.5 148C207.1 151.8 210.2 154.4 214.4 154.8C220.9 155.5 223.8 151.9 224.9 147.2C227.3 152 232.2 155.9 237.3 155.7C243.7 155.5 246.3 151.9 247.2 147.3C247.2 147.1 247.3 146.9 247.3 146.8C248.8 150.9 251.6 155.4 255.9 156.6C263.6 158.6 266.8 153.1 268.3 146.8C270 151 273.1 154.7 278.5 154.6ZM267.5 185.9C267.7 185.6 267.8 185.3 267.8 184.9C267.5 178.1 268.5 170.9 267.4 164.1C267.3 163.2 265.8 163.2 265.6 164.1C265.6 164.2 265.6 164.3 265.6 164.4C259.1 163 251.9 163.2 245.3 163C239.6 162.8 233.8 162.1 228.5 164.5C228.1 164.7 228 165 228.1 165.3C226.9 171.3 225.7 179.9 228.3 185.7C228.3 185.8 228.4 185.9 228.5 186C228.5 186.3 228.6 186.5 228.9 186.6C234.4 189.1 240.7 187.8 246.5 187.6C253.3 187.4 260.1 188.6 266.7 186.6C267.1 186.4 267.3 186.2 267.5 185.9ZM219.8 184.8C219.3 181.5 220.1 178.2 219.8 174.9C219.5 171.9 218.9 169.1 219.5 166.2C219.5 165.9 219.6 165.6 219.7 165.4C220.4 164.5 220 162.9 218.6 162.8C211.6 162.6 204.5 163.1 197.4 162.9C190.7 162.8 183.9 162.2 177.2 162.4C172.1 162.5 167.1 162.7 162 162.5C159.3 162.4 155.8 162 153.5 163.8C152.8 164.4 153.3 165.6 154.1 165.7C153.7 171.8 154.2 178.1 154.2 184.3C153.5 184.5 153.6 185.7 154.3 186C158.4 187.7 162.8 186.6 167.1 186.5C172.8 186.4 178.6 186.6 184.3 186.6C195.3 186.4 206.5 186.7 217.4 185.9C218.3 187.2 220.1 186.3 219.8 184.8ZM145.5 165.1C146.3 164.4 146.1 162.7 144.7 162.7C131.3 162.4 117.8 162.5 104.5 162.7C103.6 162.7 103.4 164.1 104.3 164.3H104.4V164.4C104.1 171.7 103 179.5 105 186.7C105.4 188 106.8 187.8 107.3 186.9C119.8 187.2 132.2 187.5 144.7 187.6C146 187.6 146.2 186.1 145.5 185.4C145.2 178.6 145.8 171.9 145.5 165.1Z" fill="#9E9E9E"/>
<path d="M272.8 99.2C272.9 104.9 273.3 110.7 272.7 116.4C272.3 116.1 271.8 116 271.3 116.3C267.5 118.6 261.7 117.7 257.4 118.1C249.9 118.8 242.6 118.9 235 118.9C220 118.9 205 118.7 189.9 118.6C175.1 118.5 160.4 118.6 145.6 118.2C130.3 117.8 114.8 116.8 99.5 117.3C99 103.4 99.8 89.5 99.5 75.7C128.2 74.2 156.7 74.7 185.5 75.4C214.7 76.1 243.8 74.4 273 74.4C272.2 82.5 272.6 91 272.8 99.2Z" fill="#68F6E7"/>
<path d="M262 136.6C263.8 136.5 265.6 136.4 267.4 136.3C267.3 137.3 267.2 138.3 267.2 139.4C266.8 141.5 266.5 144 265.8 146.3C264.6 150.8 262.4 154.5 257.2 153.1C253.6 152.2 251.5 147.6 250.7 144.4C250.2 142.7 249.9 140.9 250.1 139.2C250.2 138.4 250.4 137.7 250.4 137C254.3 137 258.1 136.8 262 136.6Z" fill="#FF154D"/>
<path d="M265.1 195.9C264.2 205.5 264.3 215.2 264.1 224.8C264 227.8 263.6 231.3 263.4 234.7C260.4 235.3 257.4 235.8 254.5 236.7C245.7 239.4 237.7 243.8 230.4 249.3C230.2 249.5 230 249.6 229.8 249.8C229.8 246.4 230.1 242.9 230.1 239.7C230.1 232.9 230.1 226.2 230.1 219.5C230.1 211.7 229.2 203.8 229.6 196.1C241.4 197.1 253.4 196 265.1 195.9Z" fill="#82A3F6"/>
<path d="M265.3 166.6C264.5 172.3 264.1 178.5 264.7 184.1C259 185.3 253.2 184.5 247.5 184.6C247.5 178.3 247.9 171.9 247.4 165.7C247.5 165.7 247.7 165.7 247.8 165.7C253.4 165.8 259.6 167.3 265.3 166.6Z" fill="#82A3F6"/>
<path d="M237.1 137C240 137 242.8 137 245.7 137C245.7 137.1 245.6 137.1 245.6 137.3C244.8 140.1 245.3 143.7 244.7 146.6C244.2 148.9 243.1 150.8 240.3 151.6C232 154 226.6 144.7 227.6 137.6C227.6 137.4 227.6 137.2 227.6 137C230.8 137 233.9 137 237.1 137Z" fill="white"/>
<path d="M245.3 165.6C244.7 171.9 244.7 178.3 244.6 184.6C244.6 184.7 244.6 184.7 244.6 184.7C240 184.9 235.5 185.4 230.9 185C230.9 184.8 231 184.6 230.9 184.4C229.7 178.2 230.8 172 229.9 165.8C235 165 240.1 165.4 245.3 165.6Z" fill="#82A3F6"/>
<path d="M224.2 137C224.2 137.1 224.1 137.2 224.1 137.3C223.7 137.4 223.4 137.8 223.3 138.3C223.1 141 223 144.3 222.2 146.8C221.2 149.9 219 152.1 214.3 151C211.1 150.3 209.4 147.7 208.6 144.8C208 142.5 208.5 139.1 207.4 137C213 137 218.6 137 224.2 137Z" fill="#FF154D"/>
<path d="M217.5 215.4C217.8 223.4 217.6 231.4 217.4 239.4C217.4 240.8 215.9 253.1 217.4 257.9C207.8 257.7 198.1 257.5 188.5 257.4C187.4 253.1 188.4 247.9 188.4 243.6C188.4 238.1 188.4 232.7 188.4 227.2C188.4 217.3 187.2 207.5 188.1 197.6C188.1 197.5 188.1 197.5 188.1 197.4C192.5 197.4 197 197.4 201.4 197.4C206.9 197.4 213.1 196.1 218.5 197.3C216.9 203.2 217.2 209.3 217.5 215.4ZM195.4 235.9C196.7 234.1 196.6 231.1 196.6 229.1C196.6 226.9 196.6 224.3 195.5 222.4C195 221.5 194 221.6 193.4 222.1C193.1 222.1 192.9 222.3 192.7 222.6C191.7 224.6 191.7 227.1 191.8 229.3C191.9 231.6 192.1 233.9 193 236C193.5 236.9 194.9 236.7 195.4 235.9Z" fill="#68F6E7"/>
<path d="M217 174.5C217.2 177.1 216.2 180.4 216.5 183.2C207.4 182.7 198.1 183.2 188.9 183.5C188.9 177.6 188.7 171.6 188 165.7C197.7 165.8 207.3 165.7 217 165.9C217 166 216.9 166.1 216.9 166.3C216 168.7 216.8 172.3 217 174.5Z" fill="#82A3F6"/>
<path d="M217.3 261.1C215.2 263.2 213.2 265.4 211.2 267.7C209.5 269.6 207.8 271.6 206.1 273.5C194.9 273.5 183.7 273.5 172.6 273.8C172.2 273.3 171.7 272.9 171.2 272.5C169.5 271.3 167.6 270.4 166.2 268.9C166 268.7 165.9 268.5 165.7 268.4C164.6 267.1 163.7 265.5 162.7 264.1C161.8 262.8 160.9 261.6 159.9 260.6C160.7 260.6 161.4 260.5 162.2 260.5C170.9 260.4 179.6 260.2 188.3 260.3C197.8 260.5 207.6 260.8 217.3 261.1Z" fill="#CCCCCC"/>
<path d="M203.2 277C202.9 277.3 202.7 277.6 202.4 278C201.6 278.9 200.9 279.8 200.3 280.8C199.7 281.8 199.1 282.8 198.7 283.8C195.3 283.7 191.9 283.6 188.5 283.7C185.3 283.9 181.9 284.2 178.6 284.4C177.6 282.9 177 281.3 176.3 279.7C175.9 278.8 175.5 277.9 175 277C184.3 277.2 193.7 277.1 203.2 277Z" fill="#CCCCCC"/>
<path d="M186.9 137C192.2 137 197.4 137 202.7 137C202.7 137.1 202.6 137.1 202.6 137.3C201.7 143.2 203.8 152.2 195.5 153.2C186.8 154.1 186.8 142.9 186.9 137Z" fill="white"/>
<path d="M185.3 197.4C185.6 197.4 186 197.4 186.3 197.4C184.2 207.4 185.6 218.1 185.6 228.2C185.6 234 185.6 239.9 185.6 245.7C185.6 249.5 184.8 253.6 185.6 257.3C175.8 257.2 166.1 257.3 156.4 257.7C156.4 257.6 156.4 257.6 156.4 257.5C156.1 256.2 156.3 252.6 156.4 250.6C156.6 245.8 156.6 241.1 156.5 236.3C156.2 222.9 155.5 209.6 154.7 196.2C154.7 196.1 154.7 195.9 154.6 195.8L154.8 195.7C154.9 195.9 155.1 196.1 155.3 196.2C159.6 197.8 164.2 197 168.7 197C174.1 197.1 179.7 197.4 185.3 197.4ZM182 234.3C182.2 231 180.9 227.8 181.4 224.5C181.4 224.2 181.4 224 181.2 223.8C181.2 223.6 181.2 223.4 181.3 223.2C181.3 222.8 180.9 222.3 180.5 222.2C180.3 222.2 180.1 222.1 179.9 222.1C179.5 222 178.9 222.1 178.7 222.6C176.8 226.5 176.9 232.2 179 236C179.6 237.1 181.2 236.8 181.5 235.7C181.6 235.5 181.6 235.4 181.6 235.3C181.9 234.9 182 234.6 182 234.3Z" fill="#68F6E7"/>
<path d="M186.1 183.6C185.8 183.6 185.6 183.6 185.3 183.6C179.9 183.7 174.5 183.6 169.2 183.6C165.2 183.6 161.2 184.3 157.2 184.3C157.2 178.1 156.8 171.7 156.2 165.4C156.2 165.3 156.2 165.3 156.2 165.2C159.1 164.8 162.4 165.4 165.2 165.6C170.6 166 175.9 165.3 181.3 165.5C183 165.5 184.8 165.6 186.5 165.6C185.8 171.6 186.1 177.6 186.1 183.6Z" fill="#82A3F6"/>
<path d="M166.2 137C171.9 137 177.5 137 183.2 137C182.9 137.6 182.7 138.4 182.7 139.2C182.1 141.7 182.8 145.1 182.4 147.4C181.7 151.4 179.5 154.1 175.2 154C170.4 153.9 168.7 150.1 168.3 145.9C168.1 143.9 169.3 139.3 167.8 137.8C167.6 137.6 167.2 137.5 167 137.7C166.8 137.5 166.6 137.4 166.3 137.4V137H166.2Z" fill="#FF154D"/>
<path d="M166.2 137V137.5C165.7 137.5 165.1 137.8 164.9 138.4C164 141.3 164.6 144.3 163.2 147.1C161.6 150.2 158.7 151.9 155.2 152C149.8 152.2 147.6 149.1 146.6 145.3C146 143 145.7 140.5 145.4 138.1C145.3 137.4 144.7 137.3 144.2 137.6C144.2 137.5 144.2 137.3 144.1 137.2C144.1 137.1 144.1 137.1 144 137C151.5 136.9 158.8 136.9 166.2 137Z" fill="white"/>
<path d="M142.8 185.1C137 185.1 131.2 185.1 125.4 185.1C125.4 185 125.5 184.8 125.5 184.6C125.6 178.4 125.7 172 125.1 165.8C131.2 165.8 137.3 165.5 143.3 165.4C142.9 172 142.7 178.5 142.8 185.1Z" fill="#82A3F6"/>
<path d="M143.2 197.4C142.4 202 142.8 206.8 142.8 211.5C142.7 218 142.7 224.5 142.5 231C142.4 236 142.1 241 141.8 245.9C139.9 244.2 137.9 242.5 135.7 241.1C129.3 237.1 121.7 236.2 114.5 234.6C112.7 234.2 110.8 233.7 109 233.1C108.6 221.1 108.3 209 107.5 197C111.6 198 116.1 197.4 120.3 197.2C128 196.7 135.6 197.4 143.2 197.4Z" fill="#82A3F6"/>
<path d="M133.9 136.9C136.3 136.9 138.7 136.9 141.1 136.9C141.1 137 141 137 141 137.1C140.2 142.2 141.6 151.4 136.1 154.4C132.1 156.6 127.2 153.3 125.5 149.7C125.2 149.1 125 148.5 124.8 147.9C124.2 146.1 123.9 144.3 123.8 142.4C124.1 140.3 124.1 138.3 123.6 136.7C127 136.9 130.5 136.9 133.9 136.9Z" fill="#FF154D"/>
<path d="M122.8 184.6C122.8 184.8 122.8 184.9 122.9 185.1C117.7 185.1 112.5 185.1 107.4 185.2C106.5 178.3 106 171.4 105.8 164.5C111.5 165.4 117.4 165.8 123.2 165.8C122.6 172 122.8 178.4 122.8 184.6Z" fill="#82A3F6"/>
<path d="M120.7 136.8C120 138.8 120.3 141.4 120.1 143.4C119.7 146.5 119.1 150.4 116.9 152.8C113.9 156 109.9 153 108 150.2C107.2 149.1 106.6 147.9 106.1 146.6C104.9 143.8 104.4 140.7 104.9 137.8C105 137 103.9 136.4 103.5 137.2V137.3C103.5 137 103.5 136.7 103.4 136.4C109 136.5 114.9 136.6 120.7 136.8Z" fill="white"/>
<path d="M100.2 136.2C99.8 141.9 102 150.9 97.1 155.1C95.3 156.7 91.8 157.1 89.7 155.8C87.8 154.6 87.3 152.1 86.8 150.1C85.7 145.5 84.5 140.8 84.7 136C85.1 136 85.5 136 85.9 136C90.6 136.1 95.4 136.1 100.2 136.2Z" fill="#FF154D"/>
<path d="M121.4 74.6C112.4 74.1 105 85.7 103.4 93.3C102 99.9 102.6 109 107.7 114C110.1 116.4 114.1 116.9 117.1 117.9C113.5 118.2 109.8 118.3 106.3 119C103 119.6 102.2 120.9 100.2 118.3C97.3 114.7 98.3 109.4 98.5 105.1C98.8 99.5 98.5 93.9 98.5 88.3C98.5 85.6 96.6 76.5 98.2 74.4C99.9 72.2 108.6 73.2 111.2 73.3C114.5 73.4 117.8 74.6 121.4 74.6Z" fill="#47D1C1"/>
<path d="M257.4 75.2C261.5 77.7 266.3 78.8 267.9 84C268.9 87.2 269.4 91.5 269.4 94.8C269.5 101.5 266.4 109.8 261.1 114.1C258 116.6 254.2 119.5 250.4 120.8C253.7 121.8 258.9 119.8 262.4 119.4C264.8 119.1 267.3 119.2 269.8 119.1C274.3 118.8 275.9 116.5 275.4 111.8C274.6 103.7 273.1 95 273.1 86.6C273.1 82.2 273.6 77.9 273.4 73.5C267.5 73.1 261.1 73.1 255.1 73.5C255.1 74.6 255.7 74.6 257.4 75.2Z" fill="#47D1C1"/>
<path d="M168.7 196.6C166.2 202.5 158.8 206.4 155.5 212C153.5 215.4 155.5 217.1 155.5 220.9C157.6 216.3 163.3 210.5 167.1 207.1C170.8 203.8 174.7 198.9 179 196.6C175.8 196 171.7 195.8 168.7 196.6Z" fill="#47D1C1"/>
<path d="M186.7 202.9C184 208.7 177.7 215.1 173.4 219.8C170 223.5 166.3 226.5 162.4 229.7C160.2 231.5 156.3 233.9 155.4 236.7C154.6 239.2 155 244.5 155.1 247.1C157.5 240.5 166 232.9 171.7 228.9C175.9 225.9 185.5 221 187.1 216C188.1 212.8 187.4 207.4 186.7 202.9Z" fill="#47D1C1"/>
<path d="M186.4 239.9C180.8 244.7 174.7 249.1 168.4 252.8C165.7 254.4 162 256.2 160.2 258.8C165.1 259.1 170.4 257.7 175.4 257.5C177 254.3 180.5 250.8 183.5 248.6C185.7 247 185.9 247.5 186.4 244.9C186.8 242.7 185.6 240.5 186.4 239.9Z" fill="#47D1C1"/>
<path d="M187.7 223.2C193.8 217.6 201.8 213.6 208 208.2C210.8 205.8 214.5 200.5 218 199.3C218.5 202.6 218.1 205.9 218 209.2C217.9 211.1 218.3 212.7 217.3 214.2C215.8 216.3 211.7 218.3 209.7 219.9C202.2 225.4 195.2 231.6 187.5 236.5C187.2 232.1 188.1 227.7 187.7 223.2Z" fill="#47D1C1"/>
<path d="M203.4 197.2C196.6 198.5 192 206.2 187.4 210.7C186.8 206.2 186.6 201.6 186.8 196.9C192.1 196 198.4 194.4 203.4 197.2Z" fill="#47D1C1"/>
<path d="M218.1 237.9C212.5 243.5 205.2 247.6 198.7 252C196 253.8 191.7 255.3 189.8 257.8C193.7 258.1 203 259.5 206.4 257.7C208.9 256.5 211.1 252.8 213.7 251.1C215.8 249.7 217.6 248.9 218.6 246.8C219.9 244 220.1 239.9 218.1 237.9Z" fill="#47D1C1"/>
<path d="M121.8 165.9C120.7 165 119.6 165.1 118.5 165.5C118.6 165.2 118.2 164.8 117.8 165C114.4 166.8 111.5 169.3 108.7 171.8C107.7 172.8 106.2 173.8 105.6 175.1C104.9 176.7 105.8 177.4 106.1 178.9C106.2 179.4 106.9 179.6 107.2 179.2C109.4 176.6 111.6 173.9 114.5 172C117 170.3 119.6 168.9 121.8 166.8C122 166.6 122.1 166.1 121.8 165.9Z" fill="#B0CAFF"/>
<path d="M136.5 164.8C135.7 165.2 135 165.6 134.3 166C134.2 165.9 134 165.8 133.8 165.9C130.9 168 128.3 170.4 125.6 172.7C125.1 173.1 125.7 173.9 126.3 173.5C126.5 173.4 126.6 173.3 126.8 173.2C126 174.1 125.2 175.1 124.6 176.2C124.2 176.8 125.1 177.6 125.6 177C127.1 175.1 128.6 173.3 130.3 171.6C131.5 170.5 132.7 169.5 133.9 168.5C134.4 168.2 134.9 167.8 135.5 167.5C135.7 167.4 135.8 167.2 135.7 167C136.2 166.6 136.8 166.1 137.3 165.7C137.9 165.3 137.1 164.5 136.5 164.8Z" fill="#B0CAFF"/>
<path d="M123.2 171.9C121 174.4 118.2 176.1 115.6 178.2C113.5 179.9 109.6 182.2 109.1 185C108.9 186 109.7 186.8 110.7 186.6C112.4 186.3 113.2 185.1 114.5 183.9C115.9 182.6 117.4 181.3 118.9 180C121.2 178.1 124.7 176.3 125.5 173.2C125.8 172 124.1 170.9 123.2 171.9Z" fill="#B0CAFF"/>
<path d="M143.7 170.3C140.7 172.7 137.5 174.8 134.5 177.2C132.1 179.1 128.5 180.9 127 183.6C126.5 184.5 127.1 185.7 128.2 185.7C131.4 185.6 133.9 182.5 136.1 180.5C139.2 177.7 142 174.5 145 171.6C145.9 170.8 144.6 169.6 143.7 170.3Z" fill="#B0CAFF"/>
<path d="M143.1 177.2C141.7 178.2 140.4 179.2 139.1 180.3C138 181.2 136.2 182.7 136 184.1C135.9 184.9 136.5 185.9 137.4 185.5C138.8 184.9 139.8 183.3 140.7 182.1C141.7 180.8 142.9 179.5 144.1 178.3C144.7 177.8 143.9 176.6 143.1 177.2Z" fill="#B0CAFF"/>
<path d="M176.5 164.3C176.4 164.4 176.2 164.5 176.1 164.6C175.8 164.3 175.3 164.1 174.9 164.4C173.8 165.1 172.7 165.7 171.6 166.4C171.9 165.7 171.5 164.9 170.6 164.8C168 164.5 165.8 167.3 163.9 168.8C161 171.2 158.1 173.6 155.1 176C154 176.8 154.6 178.2 155.6 178.6C154.1 179.6 154.7 181.6 156.1 182.1C156.1 182.1 156.1 182.1 156.1 182.2C155.2 184.5 158.7 185.7 159.9 183.8C160.9 182.2 163 180.8 164.3 179.5C165.8 178 167.4 176.6 168.9 175.2C172 172.4 175.2 169.8 178.2 167C179.6 166 178.2 163.3 176.5 164.3Z" fill="#B0CAFF"/>
<path d="M184.6 164.7C181.3 167.7 177.6 170.4 174.2 173.3C170.8 176.2 167.5 179.2 164 182.1C162.3 183.5 164.9 186.1 166.4 184.5C169.5 181.3 172.7 178.1 175.8 174.9C178.9 171.7 181.7 168.1 184.8 164.9C184.9 164.8 184.7 164.6 184.6 164.7Z" fill="#B0CAFF"/>
<path d="M198.7 164.5C198.4 164.7 198.2 164.9 198 165.1C197.8 164.7 197.3 164.5 196.9 164.8C189.8 169.4 183.8 175.8 177.6 181.5C176.2 182.8 177.7 184.6 179.3 184.4C180.3 184.3 181.3 183.8 182.3 183.3C183 184.5 184.6 185.1 185.6 183.8C190.3 177.9 195.4 172.5 200.7 167.2C202 165.8 200.3 163.4 198.7 164.5Z" fill="#B0CAFF"/>
<path d="M210.3 164.2C207.1 165.6 204.7 169.8 202.6 172.4C200.2 175.4 196.5 178.5 195.3 182.2C194.9 183.4 196.4 184.6 197.5 183.9C200.3 182.1 202 178.6 204 175.9C205.1 174.4 206.1 173 207.2 171.6C208.4 170 209.7 167.1 211.4 166C212.8 165.4 211.6 163.7 210.3 164.2Z" fill="#B0CAFF"/>
<path d="M217.5 169.6C213.3 173.1 209.8 176.9 207 181.6C205.8 183.7 208.4 185.3 210.1 184C210.7 183.5 211.3 183 211.9 182.6C211.9 182.9 212 183.2 212.2 183.5C212.6 184.5 213.9 184.6 214.7 184.2C214.8 184.2 214.8 184.2 214.9 184.1C215.6 183.8 215.8 183.1 215.7 182.4C215.7 181.1 217.5 178.5 218.1 177.5C218.9 176 217.1 174.3 215.8 175.2C216.9 173.8 218 172.5 219.2 171.2C220.2 170.1 218.6 168.6 217.5 169.6Z" fill="#B0CAFF"/>
<path d="M244 163.6C241.1 165.1 238.7 167.8 236.5 170.3C234.1 172.9 231.6 175.6 229.3 178.4C227.6 180.5 230.6 183.6 232.3 181.4C234.6 178.6 236.8 175.7 239.2 173C241.4 170.5 244 168.2 245.6 165.2C246.2 164.2 245 163.1 244 163.6Z" fill="#B0CAFF"/>
<path d="M251 165.3C248.1 168.6 244.7 171.4 241.9 174.7C239.4 177.6 236.2 180.9 235 184.6C234.4 186.3 236.8 187.6 238 186.4C240.8 183.6 242.5 179.4 244.8 176.2C247.2 172.9 250.2 169.8 251.9 166.1C252.2 165.4 251.5 164.7 251 165.3Z" fill="#B0CAFF"/>
<path d="M258.8 165.1C258.7 165 258.7 164.8 258.5 164.7C258.4 164.6 258.3 164.5 258.2 164.4C257.8 164 257.2 163.8 256.6 164C254.3 164.9 252.8 167.4 251.5 169.4C250.7 170.7 250 172.2 249.5 173.7C247.2 176.7 245.4 179.9 243.7 183.2C243.1 184.4 243.8 186.1 245.3 186C247 186 248.2 186.7 249.6 185.5C251.3 184.1 252.8 181.2 254.1 179.6C257.2 175.7 260.1 171.9 261.8 167.2C262.7 165.2 260.2 164.1 258.8 165.1Z" fill="#B0CAFF"/>
<path d="M263.8 174.9C261.4 177.6 258.8 180.1 256.7 183.1C255.2 185.2 258.6 187.1 260.2 185.1C262.3 182.3 263.8 179.2 265.6 176.3C266.2 175.2 264.7 174 263.8 174.9Z" fill="#B0CAFF"/>
<path d="M241.1 196.6C238.2 197.2 236.6 200.7 235.2 203C233.2 206.5 231.7 210.2 228.7 213C227.6 214 229.3 215.7 230.4 214.7C232.7 212.5 234.4 209.7 236.1 207.1C237 205.6 237.8 204 238.7 202.5C239.7 200.8 241.2 199.6 242.1 197.9C242.4 197.1 241.8 196.4 241.1 196.6Z" fill="#B0CAFF"/>
<path d="M257.9 194.3C257.2 195 256.4 195.8 255.7 196.6C255.7 195.1 253.8 193.8 252.4 194.7C251.7 195.2 251.1 195.6 250.5 196.1C250.2 195.9 249.8 195.8 249.5 196.1C241.3 203.3 234.6 212.6 229.3 222C228.5 223.4 229.5 224.7 230.7 225C230.4 225.7 230 226.4 229.7 227.2C229.4 228.1 229.6 228.9 230.1 229.3C229.7 230.5 229.3 231.7 228.9 232.9C228.1 235.4 231.6 236.6 232.9 234.6C241.7 221.6 250.9 208.8 259.6 195.7C260.5 194.6 258.8 193.4 257.9 194.3Z" fill="#B0CAFF"/>
<path d="M263.6 196.2C258.2 205 251 212.8 245.2 221.4C242.4 225.5 239.6 229.7 237 234C234.3 238.3 231 242.7 229.3 247.4C228.7 249 231.1 250.4 232.3 249.1C235.5 245.5 237.5 240.9 240 236.8C242.8 232.3 245.6 227.8 248.6 223.3C254.3 214.7 261 206.5 265.3 197.1C265.7 196.1 264.2 195.1 263.6 196.2Z" fill="#B0CAFF"/>
<path d="M265.1 207.4C257.4 216.9 251.1 227.6 243.8 237.3C242.3 239.3 245.9 241.6 247.3 239.3C247.3 239.2 247.4 239.2 247.4 239.1C248.1 239.7 249.1 240 250 239.6C253.2 238.1 255.6 233.9 257.6 231C260.3 227.1 262.6 222.9 264.7 218.6C264.9 218.3 264.9 217.9 264.8 217.6C265 217.3 265.2 217.1 265.4 216.8C266.6 215.4 265.5 213.6 264.2 213.4C265.2 211.8 266.1 210.3 267 208.7C267.5 207.7 265.9 206.4 265.1 207.4Z" fill="#B0CAFF"/>
<path d="M133.1 197.4C132.8 196 130.8 194.9 129.3 196.2C129 196.5 128.7 196.8 128.4 197.1C128.2 196.9 127.9 196.8 127.7 196.8C127.6 196.2 126.8 195.8 126.2 196.3C119.5 201.8 111.7 208.1 107.7 215.9C107.4 216.5 107.5 217.2 107.8 217.7C107.7 217.8 107.7 217.9 107.6 218C106.7 219.5 108.1 220.9 109.5 220.8C109.1 221.2 108.8 221.6 108.4 222C106.6 224.1 109.5 227.1 111.5 225.1C112.5 224.1 113.4 223.1 114.2 222C117.5 218.3 120.8 214.5 124.1 210.7C125.6 209 127.2 207.4 128.4 205.6C129.4 204.2 130 202.6 130.9 201.1C131.7 200.3 132.4 199.5 133.1 198.7C133.6 198.3 133.5 197.7 133.1 197.4ZM119.9 208C119.9 207.9 120 207.9 120 207.8C119.6 208.2 119.3 208.6 118.9 209.1C117.2 211.2 115.7 213.3 114.1 215.3C113.6 215.9 113.1 216.4 112.6 217C114.8 213.8 117.3 210.8 119.9 208Z" fill="#B0CAFF"/>
<path d="M142.4 196.7C136.4 202.8 131.1 209.4 125.8 216.1C123.3 219.3 120.8 222.6 118.2 225.8C116.1 228.4 114.1 230.1 113.9 233.5C113.9 234.3 114.8 235.1 115.6 234.8C118.7 233.5 119.7 231.2 121.6 228.5C123.9 225.1 126.3 221.8 128.8 218.5C134 211.7 139.3 205.1 144.3 198.2C145 197.1 143.3 195.8 142.4 196.7Z" fill="#B0CAFF"/>
<path d="M143.6 215.2C143.7 215 143.8 214.8 144 214.7C144.7 213.5 143 212.1 142.1 213.2C138.2 217.9 133.8 222.1 129.7 226.6C127.8 228.7 122.1 233.3 124.1 236.7C124.5 237.3 125.2 237.8 125.9 237.7C126.1 237.7 126.2 237.7 126.4 237.7C126.8 237.7 127.1 237.6 127.4 237.4C127.4 237.5 127.4 237.7 127.4 237.8C127.4 237.9 127.4 238.1 127.4 238.2C128.6 238.5 129.8 238.9 131 239.4C131.3 239.1 131.6 238.8 131.7 238.3C134 230.3 141.7 224.2 145.3 216.8C145.8 215.8 144.5 214.8 143.6 215.2Z" fill="#B0CAFF"/>
<path d="M140.7 233.6C139.2 236 137.6 238.4 135.6 240.4C135.3 240.7 135.1 241 135 241.4C135.5 241.6 136 241.9 136.5 242.1C137.3 242.4 137.9 242.9 138.5 243.5C138.7 243.3 138.8 243.2 138.9 243C140.6 240.5 142.1 238 143.4 235.2C144.3 233.4 141.8 231.8 140.7 233.6Z" fill="#B0CAFF"/>
<path d="M82.7 106.6C86.7 107.3 88.3 106.2 91.4 110.1C93.8 113.1 95.5 116.7 97.7 119.6C99.5 113.1 98.2 103.9 98.1 97C93.4 96.7 88.5 97.5 84.2 98.7C83.8 101.5 83.8 104.4 83.8 107.3C84.5 107.4 85.1 107.1 82.7 106.6Z" fill="#6F7070"/>
<path d="M288.7 110.9C285.1 104.9 276.1 111.9 274 115.4C274.1 111.8 274 107.9 274.6 104.4C275 102 277.2 97.7 275.1 95.8C278 95.8 280.7 95.6 283.5 95.5C286.7 95.4 286.8 95.2 288 97.5C289.7 100.6 289.3 105.6 288.7 110.9Z" fill="#6F7070"/>
<path d="M288.4 123.6C284.1 126.5 277.3 128 272.2 129.1C265.5 130.6 258.4 130.9 251.6 130.9C240.2 130.9 228.9 130.9 217.5 130.9C199.8 130.9 182.2 132.2 164.6 132.2C156.8 132.2 149 132.2 141.2 132.2C134.8 132.2 128.3 130.6 121.9 129.8C117.9 129.3 112.4 129.4 109.3 126.5C108.1 125.4 108 123.9 106.3 123.2C104.9 122.7 102.5 123.1 101 123.2C101.4 127.1 98.1 128.3 95.1 128.8C93.6 129.1 91.8 129.5 90.2 129.2C88.3 128.8 87.2 127.4 85.3 127C84.3 129.1 84.6 131.9 84.7 134.2C96.9 134.8 109.3 134.1 121.5 134.6C137.3 135.2 153.9 135 169.6 134C184.8 133 200.4 135 215.7 135C231 135 246.4 135 261.7 135C270.3 135 280.5 136.5 288.9 134.6C288.5 131.2 289 127.7 288.4 123.6Z" fill="#6F7070"/>
<path d="M280.4 167.9C270.3 159.3 253.3 161.2 240.7 161.2C219.7 161.2 198.7 161.2 177.7 161.2C161.5 161.2 145.5 160.8 129.4 161.6C119.6 162 107.2 163.2 101.9 172.9C100.6 175.4 100.6 177.3 100.1 179.9C99.5 182.8 97.9 185.3 97 188.1C95.9 191.5 94.1 195.8 94 199.5C94 187.7 93.8 175.9 94.3 164.2C94.4 162.5 93.9 160.4 94.3 158.7C95 156 95.9 156.8 98.1 155C100.6 152.9 101.7 149.3 103.1 146.6C106.2 150.9 109.1 156 115.3 155.3C119.6 154.8 121.5 152 122.1 148.1C124.8 150 125.7 152.4 128.9 153.7C131.1 154.6 133.6 155.6 135.9 155.7C141.8 155.8 141.5 149.6 143.1 145.4C148.4 148.3 147.7 154.4 155.7 152.7C157.4 152.3 159.4 151.3 160.8 150.2C162.2 149 163.4 146.1 165.3 146.1C167.1 150.7 166.2 154 172.4 155.3C174.4 155.7 178.7 156.2 180.4 155.2C182.7 153.9 182.6 150.8 184.1 148.8C187.6 151 190.3 154.4 195 153.4C199.2 152.5 202.5 149.1 204.4 145.4C207.4 148.3 209 151.1 213.6 151.7C217.6 152.2 223.6 150.3 225 146C226.1 147.2 226.2 148.4 227.6 149.3C228.2 149.7 229.8 149.4 230.6 149.7C232 150.2 233 151.3 234.4 151.8C241.4 154.5 244.9 150.8 247.4 144.7C249 146.9 249 149.1 251.4 151.1C253.4 152.8 254.9 153.7 257.3 154C262.8 154.8 267 150.7 268.4 145.7C273.3 148.6 274 153.1 280.9 152.7C281.5 157.2 281.7 161.9 280.4 167.9Z" fill="#6F7070"/>
<path d="M228.6 177.7C227.1 174.9 221.5 174.8 218.9 175.9C218.6 172 218.8 168 218.6 164C213.7 163.7 208.6 165 203.7 164.7C207.8 162.5 216 164.3 220.7 164.3C224.5 164.3 228.4 164.2 232.2 164.3C229.4 167.7 226.5 172.5 228.6 177.7Z" fill="#6F7070"/>
<path d="M155.6 174.7C152 175.1 147.8 174.1 144.1 173.9C143.8 171.6 145.9 168.2 144.8 165.9C143.6 163.5 139.5 164.5 137.4 164.4C131.5 164.1 125.8 163.2 119.8 162.9C118.7 157.8 133.6 159.1 136 159.2C140.3 159.4 144.7 160 149 159.4C152.9 158.9 156.6 158.4 160.6 158.4C167.5 158.4 174 159.6 181 159.7C181.9 159.7 183.5 159.3 183.7 160.3C184 161.8 180.8 161.8 179.8 161.9C174.8 162.4 169.8 162.9 164.8 163.4C162.7 163.6 154.6 163.4 153.9 165.1C153.1 166.8 155.6 172.3 155.9 174.1C156.4 174.2 156.7 174.2 155.6 174.7Z" fill="#6F7070"/>
<path d="M280.3 174.9C273.9 174.9 270.6 176.5 267.3 181.8C266.9 177.5 267.2 172.8 266.3 168.6C265.5 164.7 257.6 164.7 254.1 164.4C245.8 163.7 238.1 162.5 230 165.3C227.4 166.2 225.2 168.3 222.5 167.3C220.7 166.6 219.2 164.8 217.4 164.1C218.9 161.8 220.8 161.2 223.5 160.6C227.5 159.8 232.3 158.9 236.3 159C247.6 159.2 258.9 160.3 270.3 160.3C274.1 160.3 280.2 158.6 281.2 163.3C282.2 167.2 278.8 171.9 280.3 174.9Z" fill="#6F7070"/>
<path d="M281.1 217.9C276.3 220.9 271.1 220.7 265.6 220.9C265.3 225.5 264.9 230.2 265.1 234.8C269.9 235 274 233.2 277.4 230.1C280.8 227.2 279.6 223.1 281.1 217.9Z" fill="#6F7070"/>
<path d="M228.1 236.2C228.4 236.4 224.1 238.7 222.7 238.9C221.3 239.2 219.7 238.9 218.3 239C217.9 243.2 218 247.7 218 252C218 253.9 217.4 258.2 219 259.6C223.4 263.3 228.6 251.6 228.2 248.2C228 245.6 226.7 240.5 228.1 236.2Z" fill="#6F7070"/>
<path d="M153.6 236.4C152 238 147.4 237.4 145.2 236.7C143.4 240 142.7 245.6 142.9 249.4C146.9 250 150.8 254.6 153.9 257.2C156.1 253.9 156.1 248.3 155.9 244.4C155.7 242.1 155.8 238.7 153.6 236.4Z" fill="#6F7070"/>
<path d="M214.8 265.7C212.4 267.7 206.6 267.3 203.5 267.6C198.8 268 194.2 269 189.5 269.5C181.5 270.3 173.4 269.4 165.4 269.8C167.5 272.7 171.6 272.8 173.5 276.1C174.7 278.2 175.1 280.9 177.3 282.3C180.4 279.9 184.4 280.2 188.2 280C192 279.7 196.6 280.8 200.1 280.3C202.8 279.9 205.3 276.8 207.2 274.8C209.7 272 212.7 269.5 214.8 265.7Z" fill="#6F7070"/>
<path d="M292.6 144.8C292.6 145.3 292.1 145.9 291.6 145.8C290.8 145.7 290 145.7 289.2 145.9C289 145.9 288.8 145.9 288.7 145.9H288.6C288.5 146.7 288.4 147.5 288.1 148.2C287.2 151.3 284.7 153.2 281.8 154.1C281.8 154.2 281.8 154.3 281.8 154.4L279 154.5C278.8 154.5 278.6 154.5 278.4 154.5C273.1 154.6 269.9 151 268.3 146.4L265.8 146.2C266.4 143.9 266.8 141.4 267.2 139.3C267.2 138.2 267.2 137.2 267.4 136.2C265.6 136.3 263.8 136.4 262 136.5C258.1 136.7 254.2 136.9 250.4 136.9L250.3 134C254.6 133.9 258.8 133.8 263.1 133.5C270.9 133 278.6 132.5 286.3 133C286.4 127.3 287 121.5 287 115.7C287 109.6 286.8 103.5 287.1 97.4L288.9 97.3C289.8 108.8 291.4 121.9 289.2 133.3C290.6 133.9 290.4 136.3 288.7 136.1C288.3 136.1 287.9 136 287.5 136C288.4 137.5 288.3 140.1 288.4 141.8C288.4 142.5 288.5 143.2 288.5 143.9C289.4 143.6 290.4 143.6 291.4 143.6C292.1 143.9 292.6 144.2 292.6 144.8ZM285.7 143.9C285.9 141.6 284.9 138.1 286.2 136.1C281.1 135.7 276 135.8 270.9 136.1C271.7 141.5 270.9 150.9 278.4 151C283.2 151 285.4 148.3 285.7 143.9Z" fill="#231F20"/>
<path d="M288.9 96.2C288.9 96.6 289 97 289 97.4L287.2 97.5C287.2 97.5 287.2 97.5 287.1 97.5C284.7 97.4 282.3 97.4 279.9 97.2C278.6 97.1 276.7 97.1 275.6 96.3C275.6 97.8 275.7 99.3 275.7 100.8C276 108.3 276.6 115.8 274.6 123.2C274.3 124.3 273.1 124.6 272.3 124.2C243.9 124.3 215.5 124.9 187.1 124.9C157.8 124.9 128.3 126.3 99 125.5C98.2 125.5 97.8 124.8 97.9 124.2C97.3 124 96.8 123.6 96.7 122.8C96.3 115.6 96.3 108.4 96.6 101.2C96.5 101.1 96.5 100.9 96.5 100.8C96.4 99.8 96.4 98.8 96.3 97.8C92.9 98.3 89 98.2 85.6 97.7L85.3 96.1C88.7 95.5 92.7 94.9 96.2 95.3C96.1 88.6 96.5 81.9 96.6 75.3C96.6 75.1 96.7 74.9 96.8 74.8C96.7 74.2 97.1 73.5 97.9 73.4C126.9 70.2 156.5 72.1 185.6 72.8C214.8 73.5 243.9 71.8 273.1 71.8C274 71.8 274.4 72.6 274.3 73.2C274.5 73.3 274.6 73.5 274.6 73.8C275.4 80.7 275.5 87.7 275.6 94.6C277.1 94.2 279.1 94.8 280.6 94.9C282.8 94.9 285 94.9 287.1 94.8C287.6 94.8 288 95.1 288.3 95.4C288.6 95.5 288.9 95.8 288.9 96.2ZM272.7 116.4C273.4 110.7 272.9 104.9 272.8 99.2C272.7 91 272.2 82.5 273.1 74.3C243.9 74.3 214.8 76 185.6 75.3C156.9 74.6 128.3 74.2 99.6 75.6C99.9 89.5 99.1 103.4 99.6 117.2C114.9 116.7 130.4 117.6 145.7 118.1C160.5 118.5 175.2 118.4 190 118.5C205 118.6 220 118.8 235.1 118.8C242.6 118.8 250 118.7 257.5 118C261.8 117.6 267.6 118.5 271.4 116.2C271.7 116 272.3 116.1 272.7 116.4Z" fill="#231F20"/>
<path d="M281.8 154.4C282.6 169.1 281.7 184.2 281.2 198.9C280.9 207.9 281 216.8 281.1 225.6C281.3 225.7 281.4 226 281.1 226.1C280.3 226.9 279.5 227.6 278.6 228.3L278 227.6C277.8 203.2 277.5 178.7 278.9 154.4H281.8Z" fill="#231F20"/>
<path d="M278.2 227.7L278.8 228.4C276.4 230.5 274 232.4 271 233.8C269.7 234.4 268.4 234.8 267.1 235.1C267.1 235.1 267.1 235.1 267.1 235.2C267 235.2 266.9 235.2 266.8 235.2C264.3 235.8 261.7 236.2 259.2 236.8C250.3 238.9 242 242.8 234.6 248C231 250.5 227.7 253.3 224.4 256.2L223.4 255.1C224.5 254.1 225.7 253.1 226.8 252.1C226.7 247.9 227.2 243.6 227.2 239.6C227.2 232.2 227.2 224.8 227.2 217.3C227.2 212 227 206.8 226.9 201.5C226.9 199.4 226.3 195.1 228.6 193.8C228.8 193.7 229 193.7 229.2 193.7C229.2 193.7 229.2 193.7 229.3 193.7C241.1 192.6 253.3 192.6 265.2 192.7C265.7 192.7 266 192.9 266.2 193.2C266.7 193.1 267.3 193.4 267.3 194.2C268.1 203.5 267.3 213.1 267.3 222.5C267.3 226.2 267.2 229.9 267.1 233.6C267.4 233.5 267.8 233.4 268.1 233.3C271.8 232.4 275.1 230.1 278.2 227.7ZM265.1 195.9C253.4 196.1 241.3 197.1 229.6 196.1C229.2 203.8 230.1 211.8 230.1 219.5C230.1 226.2 230.1 233 230.1 239.7C230.1 242.9 229.8 246.4 229.8 249.8C230 249.6 230.2 249.5 230.4 249.3C237.6 243.7 245.7 239.4 254.5 236.7C257.4 235.8 260.4 235.3 263.4 234.7C263.7 231.2 264 227.8 264.1 224.8C264.3 215.2 264.2 205.4 265.1 195.9Z" fill="#231F20"/>
<path d="M265.9 146.3L268.4 146.5C266.9 152.8 263.7 158.3 256 156.3C251.7 155.2 248.8 150.6 247.4 146.5C247.4 146.7 247.3 146.9 247.3 147L244.7 146.5C245.3 143.6 244.8 140 245.6 137.2C245.6 137.1 245.7 137 245.7 136.9C242.8 136.9 240 136.9 237.1 136.9C233.9 136.9 230.8 136.9 227.6 136.9V134C230.8 134 234 134 237.1 134C241.5 134 245.9 134 250.3 133.9L250.4 136.8C250.3 137.5 250.1 138.2 250.1 139C250 140.8 250.3 142.5 250.7 144.2C251.6 147.4 253.7 152 257.2 152.9C262.5 154.5 264.7 150.8 265.9 146.3Z" fill="#231F20"/>
<path d="M267.8 184.9C267.8 185.4 267.7 185.7 267.5 185.9C267.3 186.2 267.1 186.4 266.7 186.5C260.1 188.4 253.3 187.3 246.5 187.5C240.6 187.7 234.4 188.9 228.9 186.5C228.6 186.4 228.5 186.2 228.5 185.9C228.4 185.8 228.4 185.7 228.3 185.6C225.7 179.8 226.9 171.3 228.1 165.2C228 164.9 228.1 164.6 228.5 164.4C233.8 162 239.7 162.8 245.3 162.9C251.9 163.1 259.1 163 265.6 164.3C265.6 164.2 265.6 164.1 265.6 164C265.7 163.1 267.2 163.1 267.4 164C268.5 170.8 267.5 178 267.8 184.9ZM264.7 184.1C264.1 178.5 264.5 172.3 265.3 166.6C259.6 167.3 253.5 165.8 247.8 165.7C247.7 165.7 247.5 165.7 247.4 165.7C247.9 172 247.4 178.3 247.5 184.6C253.2 184.5 259 185.3 264.7 184.1ZM244.6 184.6C244.7 178.3 244.7 171.9 245.3 165.6C240.2 165.4 235 165.1 230 166C230.9 172.1 229.8 178.4 231 184.6C231 184.8 231 185 231 185.2C235.6 185.5 240.1 185.1 244.7 184.9C244.6 184.7 244.6 184.6 244.6 184.6Z" fill="#231F20"/>
<path d="M244.7 146.6L247.3 147.1C246.5 151.7 243.8 155.3 237.4 155.5C232.3 155.7 227.4 151.8 225 147L222.2 146.9C223 144.3 223.1 141.1 223.3 138.4C223.3 137.9 223.7 137.5 224.1 137.4C224.1 137.3 224.2 137.2 224.2 137.1C218.6 137.1 213 137.1 207.4 137.1V134.2C214.1 134.2 220.9 134.2 227.6 134.2V137.1C227.6 137.3 227.6 137.5 227.6 137.7C226.6 144.9 232 154.2 240.3 151.7C243.1 150.8 244.2 148.9 244.7 146.6Z" fill="#231F20"/>
<path d="M222.2 146.8L225 146.9C223.9 151.6 220.9 155.2 214.5 154.5C210.3 154.1 207.3 151.5 205.6 147.7C205.4 147.3 205.3 146.9 205.1 146.4C205 148 204.7 149.6 204 151C202.2 155.2 197.3 157.2 192.9 156.6C189.1 156.1 186.5 153.6 185 150.4C185 150.5 184.9 150.7 184.9 150.8C183.3 155 179.7 157.3 175.2 157.2C170.4 157.1 167.1 154.1 166 149.4C165.9 149.2 165.9 149 165.9 148.8C163.7 152.1 160.2 154.5 156.4 154.8C149.5 155.4 145.5 151.2 144.1 145.8L146.7 145.1C147.8 149 149.9 152 155.3 151.8C158.8 151.7 161.7 150.1 163.3 146.9C164.7 144.1 164.1 141.1 165 138.2C165.2 137.7 165.7 137.3 166.3 137.3C166.6 137.3 166.8 137.4 167 137.6C167.3 137.5 167.6 137.5 167.8 137.7C169.2 139.2 168.1 143.7 168.3 145.8C168.8 150 170.4 153.9 175.2 153.9C179.5 154 181.7 151.2 182.4 147.3C182.8 145 182.1 141.5 182.7 139.1C182.8 138.3 182.9 137.5 183.2 136.9C177.5 136.9 171.9 136.9 166.2 136.9C158.8 136.9 151.4 136.9 144 136.9V134.2C157.9 134.2 171.7 134.2 185.6 134.1C192.8 134.1 200.1 134.1 207.3 134.1V137C208.4 139.1 207.9 142.5 208.5 144.8C209.3 147.8 211 150.3 214.2 151C219 152.1 221.2 150 222.2 146.8ZM202.7 137C197.4 137 192.2 137 186.9 137C186.8 143 186.8 154.1 195.5 153.1C203.8 152.2 201.7 143.1 202.6 137.2C202.6 137.2 202.7 137.1 202.7 137Z" fill="#231F20"/>
<path d="M223.4 255.2L224.4 256.3C222.4 258.2 220.4 260.1 218.4 262.1L217.3 261.1C207.5 260.8 197.8 260.4 188.1 260.4C179.4 260.4 170.7 260.5 162 260.6C161.3 260.6 160.5 260.6 159.7 260.7C160.7 261.7 161.6 262.8 162.5 264.2C163.4 265.7 164.3 267.2 165.5 268.5L164.2 269.3C163.1 268.1 162.2 266.7 161.3 265.3C160.2 263.6 159.1 262.1 157.7 260.8C157.5 260.8 157.3 260.8 157.1 260.8C156.7 260.3 156.4 259.9 156 259.4C154.5 258.4 153 257.6 151.5 256.5C149.4 255 147.4 253.3 145.6 251.5L146.7 250.3C148.7 252.1 150.6 253.9 152.8 255.4C152.4 251.5 153.2 245.4 153.2 244.1C153.2 228.1 151.9 212 152.8 196C152.9 195 154 194.9 154.4 195.6C154.5 195.7 154.5 195.8 154.5 196C155.4 209.3 156 222.7 156.3 236.1C156.4 240.9 156.4 245.6 156.2 250.4C156.1 252.4 155.9 256.1 156.2 257.3C156.2 257.4 156.2 257.4 156.2 257.5C166 257.1 175.7 257.1 185.4 257.1C184.7 253.3 185.4 249.3 185.4 245.5C185.4 239.7 185.4 233.8 185.4 228C185.4 217.9 184 207.2 186.1 197.2L187.9 197.3C187 207.2 188.2 217 188.2 226.9C188.2 232.4 188.2 237.8 188.2 243.3C188.2 247.6 187.2 252.9 188.3 257.1C197.9 257.2 207.6 257.4 217.2 257.6C215.7 252.8 217.2 240.5 217.2 239.1C217.4 231.1 217.7 223.1 217.3 215.1C217 208.9 216.8 202.9 218.2 196.9L219.8 197.2C218.9 203.1 219.6 209.2 220 215.1C220.4 221.2 220.4 227.4 220.3 233.5C220.2 241.5 219.3 249.6 219.9 257.6C220 257.6 220.2 257.6 220.3 257.6C221.5 257 222.4 256.1 223.4 255.2Z" fill="#231F20"/>
<path d="M219.2 194.5C220.1 194.7 220.3 195.5 220.1 196.2C220.1 196.3 220.2 196.5 220.1 196.6C220.1 196.9 220 197.1 220 197.4L218.4 197.1C213.1 195.9 206.8 197.2 201.3 197.2C196.9 197.2 192.5 197.2 188 197.2C188 197.2 188 197.3 188 197.4L186.2 197.3C185.9 197.3 185.5 197.3 185.2 197.3C179.6 197.3 174 197.1 168.4 197C163.9 197 159.3 197.8 155 196.2C154.7 196.1 154.6 195.9 154.5 195.7C154.2 195.1 154.4 194.2 155.3 194.3C160.4 194.8 165.6 194.1 170.7 194.2C176.6 194.3 182.5 194.4 188.4 194.4C194.1 194.4 199.8 194.5 205.5 194.4C210.2 194.4 214.7 193.5 219.2 194.5Z" fill="#231F20"/>
<path d="M219.8 174.9C220.1 178.2 219.3 181.5 219.8 184.8C220 186.3 218.2 187.2 217.3 185.9C206.4 186.6 195.2 186.4 184.2 186.6C178.5 186.7 172.7 186.4 167 186.5C162.7 186.6 158.3 187.7 154.2 186C153.5 185.7 153.4 184.5 154.1 184.3C154 178.2 153.5 171.9 154 165.7L156.2 165.5C156.8 171.7 157.2 178.1 157.2 184.4C161.2 184.4 165.2 183.7 169.2 183.7C174.6 183.6 180 183.8 185.3 183.7C185.6 183.7 185.8 183.7 186.1 183.7C186.1 177.7 185.8 171.7 186.5 165.8H188C188.8 171.7 188.9 177.7 188.9 183.6C198.1 183.3 207.3 182.8 216.5 183.3C216.2 180.5 217.2 177.2 217 174.6C216.8 172.3 216 168.8 216.9 166.3H219.5C219 169.1 219.6 171.9 219.8 174.9Z" fill="#231F20"/>
<path d="M218.5 162.8C220 162.8 220.4 164.5 219.6 165.4C219.5 165.7 219.5 166 219.4 166.2H216.8C216.8 166.1 216.9 166 216.9 165.8C207.2 165.7 197.6 165.7 187.9 165.6H186.4C184.6 165.6 182.9 165.6 181.2 165.5C175.8 165.4 170.5 166 165.1 165.6C162.3 165.4 159 164.8 156.1 165.2C156.1 165.3 156.1 165.3 156.1 165.4L153.9 165.6C153.1 165.4 152.5 164.3 153.3 163.7C155.6 161.9 159.1 162.3 161.8 162.4C166.9 162.6 171.9 162.5 177 162.3C183.7 162.1 190.5 162.7 197.2 162.8C204.4 163 211.5 162.6 218.5 162.8Z" fill="#231F20"/>
<path d="M217.3 261.1L218.4 262.1C217.3 263.2 216.2 264.4 215.1 265.5C212.2 268.6 209.4 271.9 206.6 275.1C204.9 277.1 203 279.1 201.5 281.4L200.2 280.7C200.8 279.7 201.5 278.8 202.3 277.9C202.6 277.6 202.8 277.3 203.1 276.9C193.6 277 184.2 277.1 174.7 276.9L173.3 277.7C173.2 277.5 173.1 277.3 173 277.1C172.9 277 172.9 276.9 172.8 276.9C172.6 276.9 172.4 276.9 172.2 276.9C171.2 275.8 170.1 274.8 169.1 273.9C169.4 273.9 169.6 273.9 169.9 273.9C169.3 273.4 168.6 273 167.9 272.6C166.4 271.7 165.2 270.6 164.2 269.3L165.5 268.5C165.7 268.7 165.8 268.9 166 269C167.5 270.5 169.3 271.3 171 272.6C171.5 273 172 273.4 172.4 273.9C183.6 273.6 194.8 273.5 205.9 273.6C207.6 271.6 209.3 269.7 211 267.8C213.2 265.5 215.3 263.3 217.3 261.1Z" fill="#231F20"/>
<path d="M200.3 280.8L201.6 281.5C201.1 282.3 200.7 283 200.3 283.8C200.5 283.8 200.7 283.8 200.9 283.8C200.4 284.8 200 285.8 199.5 286.9C199.4 286.9 199.3 286.9 199.2 286.9C199.2 287.1 199.1 287.4 199.1 287.6C199 288.6 197.4 288.6 197.6 287.6C197.6 287.3 197.7 287.1 197.7 286.9C194.6 286.8 191.5 286.7 188.4 286.9C186.2 287 183.9 287.2 181.6 287.4C181.7 287.4 181.8 287.5 181.9 287.6C183 288.1 182.4 289.6 181.2 289.1C178.1 287.8 176.6 285 175.3 282.1C174.7 280.7 174.1 279.3 173.4 277.9L174.8 277.1C175.3 278 175.7 278.9 176.1 279.8C176.8 281.3 177.5 283 178.4 284.5C181.8 284.3 185.1 283.9 188.3 283.8C191.7 283.6 195.1 283.8 198.5 283.9C199.1 282.7 199.7 281.7 200.3 280.8Z" fill="#231F20"/>
<path d="M196.6 229.1C196.6 231.2 196.7 234.1 195.4 235.9C194.8 236.7 193.4 237 193 235.9C192 233.8 191.9 231.4 191.8 229.2C191.7 227 191.7 224.5 192.7 222.5C192.9 222.2 193.1 222 193.4 222C194 221.5 195 221.4 195.5 222.3C196.6 224.3 196.6 226.9 196.6 229.1Z" fill="#231F20"/>
<path d="M181.5 224.5C180.9 227.8 182.2 231 182.1 234.3C182.1 234.6 182 234.9 181.8 235.1C181.8 235.2 181.7 235.4 181.7 235.5C181.3 236.6 179.7 236.9 179.2 235.8C177.2 232 177.1 226.3 178.9 222.4C179.1 221.9 179.7 221.8 180.1 221.9C180.3 221.9 180.5 222 180.7 222C181.1 222.1 181.5 222.6 181.5 223C181.5 223.3 181.5 223.5 181.4 223.6C181.4 224 181.5 224.2 181.5 224.5Z" fill="#231F20"/>
<path d="M146.7 250.5L145.6 251.7C141.4 247.8 137.5 243.6 132.3 241C125.2 237.6 117.2 237.2 109.8 235C106.6 234 103.5 232.7 100.8 230.6C97.6 228.1 95.3 224.5 91.7 222.5C91 222.1 91.6 221.1 92.3 221.5C96.4 223.4 98.8 227.5 102.5 230.1C103.5 230.8 104.6 231.4 105.8 231.9C105.9 230.7 105.9 229.7 105.9 228.9C105.7 218.2 105.4 207.3 106 196.6C105.7 196.5 105.4 196.4 105.1 196.2C104 195.7 104.8 194.2 105.9 194.4C111.5 195.6 117 194.5 122.7 194.3C129.6 194 136.4 194.4 143.3 194.5C143.7 194.5 144.1 194.7 144.3 194.9C144.8 194.9 145.3 195.3 145.2 196C144.4 201.5 145.4 207.2 145.5 212.7C145.6 218.2 145.7 223.6 145.6 229.1C145.5 235.1 145.2 241.1 144.9 247.1C144.9 247.6 144.8 248.2 144.8 248.8C145.4 249.3 146.1 249.9 146.7 250.5ZM142.8 211.5C142.8 206.8 142.4 202 143.2 197.4C135.6 197.4 128 196.7 120.5 197.2C116.3 197.4 111.8 198.1 107.7 197C108.5 209 108.8 221.1 109.2 233.1C111 233.7 112.8 234.2 114.7 234.6C121.9 236.2 129.6 237.1 135.9 241.1C138.1 242.5 140.1 244.1 142 245.9C142.2 240.9 142.5 236 142.7 231C142.7 224.5 142.7 218 142.8 211.5Z" fill="#231F20"/>
<path d="M146.6 145.2L144 146C143.1 151.6 140.7 157.2 135.6 158.3C128.2 159.9 124.2 154.8 122.5 148.7L124.8 148.1C125 148.7 125.2 149.3 125.5 149.9C127.2 153.5 132.1 156.8 136.1 154.6C141.6 151.5 140.2 142.4 141 137.3C141 137.2 141 137.2 141.1 137.1C138.7 137.1 136.3 137.1 133.9 137.1V134.4C137.3 134.4 140.7 134.4 144.1 134.4V137.1C144.1 137.2 144.2 137.2 144.2 137.3C144.2 137.4 144.2 137.6 144.3 137.7C144.8 137.4 145.4 137.5 145.5 138.2C145.7 140.4 146 143 146.6 145.2Z" fill="#231F20"/>
<path d="M144.7 162.7C146.1 162.7 146.3 164.4 145.5 165.1C145.7 171.9 145.2 178.6 145.5 185.4C146.2 186.1 145.9 187.6 144.7 187.6C132.2 187.5 119.8 187.2 107.3 186.9C106.8 187.8 105.4 188 105 186.7C103 179.5 104.1 171.7 104.4 164.4V164.3H104.3C103.4 164.1 103.7 162.7 104.5 162.7C117.8 162.5 131.4 162.4 144.7 162.7ZM125.4 185C131.2 185 137 185 142.8 185C142.6 178.4 142.9 171.9 143.3 165.3C137.3 165.5 131.2 165.7 125.1 165.7C125.7 171.9 125.5 178.3 125.5 184.5C125.5 184.8 125.5 184.9 125.4 185ZM122.9 185.1C122.8 185 122.8 184.8 122.8 184.6C122.8 178.4 122.6 172 123.2 165.8C117.3 165.7 111.5 165.4 105.8 164.5C106 171.5 106.5 178.3 107.4 185.2C112.5 185.1 117.7 185.1 122.9 185.1Z" fill="#231F20"/>
<path d="M133.9 134.2V136.9C130.5 136.9 127 136.9 123.6 136.8C124.1 138.4 124.1 140.4 123.8 142.5C124 144.4 124.3 146.2 124.8 148L122.5 148.6C121.6 152.2 119.7 156.2 115.8 157.2C109.9 158.7 105.3 153.5 103.3 147.6L105.9 146.6C106.4 147.9 107.1 149.1 107.8 150.2C109.7 153 113.7 156 116.7 152.8C118.9 150.5 119.5 146.5 119.9 143.4C120.2 141.4 119.8 138.8 120.5 136.8L120.6 134C125.2 134.1 129.6 134.3 133.9 134.2Z" fill="#231F20"/>
<path d="M120.8 134L120.7 136.8C114.9 136.7 109.1 136.5 103.2 136.4C103.2 136.7 103.3 137 103.3 137.3V137.2C103.7 136.4 104.8 137 104.7 137.8C104.2 140.7 104.8 143.8 105.9 146.6L103.3 147.6C102.7 153 100.7 158.1 95.5 159.4C95.5 159.5 95.5 159.7 95.5 159.9L93.3 159.8C89.2 160 85.9 157.8 84.5 153.7C84 152.2 83.5 150.4 83 148.7C81.5 147.5 79.7 146.4 77.9 146C77.7 146 77.6 145.8 77.6 145.7C77.2 145.7 76.8 145.7 76.5 145.7C75.5 145.7 75.5 144.2 76.5 144.2C77.3 144.1 78.1 144.1 78.9 144C78.9 143.4 79.3 142.8 79.9 142.8C80.6 142.8 81.3 142.9 82 143.1C81.8 140.6 81.9 138.2 82.4 136L84.5 136.2C84.3 140.9 85.5 145.7 86.6 150.3C87.1 152.3 87.6 154.8 89.5 156C91.6 157.3 95.1 156.8 96.9 155.3C101.8 151.1 99.6 142.1 100 136.4C95.2 136.3 90.5 136.2 85.7 136.3V134.3C97.4 133.1 109.1 133.6 120.8 134Z" fill="#231F20"/>
<path d="M95.5 159.9C95.2 165 95.8 170.2 95.5 175.3C95.1 182.1 95.1 188.8 95 195.6C95 204.8 95 213.9 95.1 223.1C94.2 222.5 93.3 221.9 92.3 221.4C92 221.3 91.8 221.1 91.5 221C91.5 212.2 91.5 203.3 91.6 194.4C91.7 187.2 92 180.2 92.6 173C92.9 168.6 92.4 164 93.2 159.7L95.5 159.9Z" fill="#231F20"/>
<path d="M85.8 134.1V136.1C85.4 136.1 85 136.1 84.6 136.1L82.5 135.9C82.1 135.5 82.2 134.8 82.7 134.5C81.4 126.4 82.3 118.2 81.8 110C81.6 106.5 80.4 98.6 83.9 96.1C84.2 95.9 84.6 96 84.8 96.3C84.9 96.3 85.1 96.2 85.3 96.2L85.6 97.8C85.3 97.8 85.1 97.7 84.8 97.7C84 102.5 84.5 106.9 84.8 111.8C85.4 119.2 84.5 126.6 85.8 134.1C85.8 134 85.8 134 85.8 134.1Z" fill="#231F20"/>
<path d="M131.108 98.3381C130.783 101.122 129.752 103.274 128.017 104.792C126.293 106.299 123.997 107.052 121.128 107.052C118.019 107.052 115.524 105.937 113.644 103.708C111.775 101.478 110.841 98.4948 110.841 94.7584V92.2273C110.841 89.7806 111.275 87.6292 112.143 85.773C113.023 83.9169 114.264 82.4946 115.867 81.5063C117.47 80.5059 119.326 80.0057 121.436 80.0057C124.232 80.0057 126.474 80.7892 128.161 82.356C129.849 83.9109 130.831 86.0683 131.108 88.8284H127.619C127.317 86.7312 126.661 85.2126 125.648 84.2724C124.648 83.3323 123.244 82.8623 121.436 82.8623C119.218 82.8623 117.476 83.6818 116.211 85.321C114.957 86.9602 114.331 89.2924 114.331 92.3177V94.8669C114.331 97.7234 114.927 99.9954 116.12 101.683C117.314 103.37 118.983 104.214 121.128 104.214C123.057 104.214 124.533 103.78 125.558 102.912C126.594 102.032 127.281 100.508 127.619 98.3381H131.108ZM156.112 94.3787C156.112 96.958 155.678 99.2119 154.81 101.14C153.942 103.057 152.713 104.521 151.122 105.534C149.531 106.546 147.675 107.052 145.553 107.052C143.48 107.052 141.642 106.546 140.039 105.534C138.436 104.509 137.189 103.057 136.297 101.177C135.417 99.2842 134.965 97.0967 134.941 94.6138V92.7154C134.941 90.1844 135.381 87.9486 136.261 86.008C137.14 84.0675 138.382 82.585 139.985 81.5606C141.6 80.524 143.444 80.0057 145.517 80.0057C147.626 80.0057 149.483 80.518 151.086 81.5425C152.701 82.5549 153.942 84.0314 154.81 85.9719C155.678 87.9003 156.112 90.1482 156.112 92.7154V94.3787ZM152.659 92.6793C152.659 89.5576 152.032 87.1651 150.778 85.5018C149.525 83.8265 147.771 82.9888 145.517 82.9888C143.324 82.9888 141.594 83.8265 140.328 85.5018C139.075 87.1651 138.43 89.4793 138.394 92.4443V94.3787C138.394 97.404 139.027 99.7844 140.292 101.52C141.57 103.244 143.324 104.105 145.553 104.105C147.795 104.105 149.531 103.292 150.76 101.665C151.99 100.025 152.622 97.6812 152.659 94.6318V92.6793ZM169.635 102.08L177.156 80.3673H180.953L171.19 106.691H168.116L158.372 80.3673H162.15L169.635 102.08ZM188.22 106.691H184.749V80.3673H188.22V106.691ZM194.584 106.691V80.3673H202.015C204.305 80.3673 206.33 80.8735 208.089 81.886C209.849 82.8984 211.205 84.3387 212.157 86.2069C213.122 88.0751 213.61 90.2205 213.622 92.6431V94.3245C213.622 96.8074 213.14 98.9829 212.175 100.851C211.223 102.719 209.855 104.154 208.071 105.154C206.3 106.154 204.233 106.667 201.87 106.691H194.584ZM198.056 83.2238V103.852H201.708C204.383 103.852 206.462 103.021 207.945 101.357C209.439 99.694 210.187 97.3257 210.187 94.2522V92.7154C210.187 89.7263 209.482 87.4062 208.071 85.7549C206.673 84.0916 204.685 83.2479 202.105 83.2238H198.056ZM225.319 96.8737H216.496V94.1437H225.319V96.8737ZM239.24 106.691H235.877V84.399L229.134 86.8758V83.8385L238.716 80.2408H239.24V106.691ZM261.857 95.12C261.158 95.9516 260.32 96.6206 259.344 97.1268C258.38 97.633 257.319 97.8861 256.162 97.8861C254.644 97.8861 253.318 97.5125 252.185 96.7652C251.064 96.0179 250.196 94.9693 249.581 93.6194C248.967 92.2574 248.659 90.7569 248.659 89.1177C248.659 87.358 248.991 85.773 249.654 84.3628C250.329 82.9527 251.281 81.8739 252.51 81.1266C253.74 80.3794 255.174 80.0057 256.813 80.0057C259.416 80.0057 261.465 80.982 262.96 82.9346C264.467 84.8751 265.22 87.5267 265.22 90.8894V91.8657C265.22 96.9882 264.207 100.731 262.183 103.093C260.158 105.443 257.102 106.649 253.016 106.709H252.366V103.888H253.071C255.831 103.84 257.952 103.123 259.435 101.737C260.917 100.339 261.725 98.1332 261.857 95.12ZM256.705 95.12C257.825 95.12 258.856 94.7765 259.796 94.0895C260.748 93.4025 261.441 92.5527 261.875 91.5403V90.2024C261.875 88.0088 261.399 86.225 260.447 84.851C259.495 83.477 258.29 82.7899 256.831 82.7899C255.361 82.7899 254.18 83.3564 253.288 84.4894C252.396 85.6103 251.95 87.0928 251.95 88.9369C251.95 90.7328 252.378 92.2153 253.233 93.3844C254.101 94.5415 255.258 95.12 256.705 95.12Z" fill="black"/>
</svg>
